<svg width="14" height="14" viewBox="0 0 14 14" fill="none" xmlns="http://www.w3.org/2000/svg">
<path d="M6.99953 12.866C3.75987 12.866 1.13379 10.2399 1.13379 7.00026C1.13379 3.76061 3.75987 1.13452 6.99953 1.13452C10.2392 1.13452 12.8653 3.76061 12.8653 7.00026C12.8653 10.2399 10.2392 12.866 6.99953 12.866ZM6.99953 12.5929C8.48278 12.5929 9.90528 12.0036 10.9541 10.9548C12.0029 9.90601 12.5921 8.48351 12.5921 7.00026C12.5921 5.51701 12.0029 4.09452 10.9541 3.0457C9.90528 1.99689 8.48278 1.40767 6.99953 1.40767C5.51628 1.40767 4.09378 1.99689 3.04497 3.0457C1.99616 4.09452 1.40694 5.51701 1.40694 7.00026C1.40694 8.48351 1.99616 9.90601 3.04497 10.9548C4.09378 12.0036 5.51628 12.5929 6.99953 12.5929ZM6.11328 6.11401L8.99359 5.0062L7.88578 7.88651L5.00547 8.99432L6.11328 6.11401ZM6.99953 8.13684C7.30097 8.13684 7.59006 8.01709 7.80321 7.80394C8.01636 7.59079 8.1361 7.3017 8.1361 7.00026C8.1361 6.69882 8.01636 6.40973 7.80321 6.19658C7.59006 5.98344 7.30097 5.86369 6.99953 5.86369C6.69809 5.86369 6.409 5.98344 6.19585 6.19658C5.9827 6.40973 5.86296 6.69882 5.86296 7.00026C5.86296 7.3017 5.9827 7.59079 6.19585 7.80394C6.409 8.01709 6.69809 8.13684 6.99953 8.13684Z" fill="#262338" stroke="#262338"/>
</svg>
