<svg width="12" height="14" viewBox="0 0 12 14" fill="none" xmlns="http://www.w3.org/2000/svg">
<path style="fill:black;stroke:black;" d="M9.91781 5.13213L9.93207 5.24242L9.99174 5.33628L11.3093 7.40873L10.259 7.85802L9.95569 7.98778V8.31773V10.1829C9.95569 10.6102 9.60982 10.956 9.18254 10.956H7.91003H7.4102L7.41003 11.4559L7.40956 12.8658H2.68023V11.0143C2.68023 10.1322 2.35238 9.31363 1.77846 8.59765L1.77835 8.59751C1.14737 7.81094 0.770508 6.81347 0.770508 5.72687C0.770508 3.19063 2.82686 1.13428 5.3631 1.13428C7.69802 1.13428 9.62623 2.87702 9.91781 5.13213ZM10.5911 6.78762L9.66865 5.33791L9.64661 5.16703L9.64659 5.16687C9.36997 3.02738 7.53989 1.40743 5.3631 1.40743C2.97735 1.40743 1.04366 3.34112 1.04366 5.72687C1.04366 6.723 1.38081 7.66583 1.99134 8.42686C2.62491 9.21679 2.95338 10.0973 2.95338 11.0143V12.0926V12.5926H3.45338H6.63625H7.13592L7.13625 12.0929L7.13719 10.6829H9.18254H9.68254V10.1829V7.80848L10.3661 7.51564L10.9069 7.28398L10.5911 6.78762ZM5.49967 5.0903V5.5903H5.99967H6.63625C6.7115 5.5903 6.77282 5.65162 6.77282 5.72687C6.77282 5.80212 6.7115 5.86344 6.63625 5.86344H5.99967H5.49967V6.36344V7.00002C5.49967 7.07526 5.43835 7.13659 5.3631 7.13659C5.28785 7.13659 5.22653 7.07526 5.22653 7.00002V6.36281V5.86231L4.72603 5.86281L4.08995 5.86344C4.08987 5.86344 4.08978 5.86344 4.08969 5.86344C4.01457 5.8633 3.95338 5.80203 3.95338 5.72687C3.95338 5.65162 4.01471 5.5903 4.08995 5.5903L4.09045 5.5903L4.72703 5.58966L5.22653 5.58916V5.08966V4.45372C5.22653 4.37848 5.28785 4.31715 5.3631 4.31715C5.43835 4.31715 5.49967 4.37848 5.49967 4.45372V5.0903Z" fill="#262338" stroke="#FBFFFF"/>
</svg>
