<svg width="22" height="21" viewBox="0 0 22 21" fill="none" xmlns="http://www.w3.org/2000/svg">
<path d="M4.31229 3.10014C6.16045 1.49868 8.52487 0.618669 10.9703 0.62208C16.5956 0.62208 21.1555 5.18199 21.1555 10.8073C21.1555 12.9828 20.4731 14.9995 19.312 16.6536L16.0629 10.8073H19.1185C19.1186 9.20985 18.6492 7.64762 17.7686 6.31484C16.888 4.98206 15.6351 3.93752 14.1656 3.3111C12.6961 2.68467 11.075 2.504 9.50363 2.79154C7.9323 3.07909 6.48016 3.82216 5.32775 4.92838L4.31229 3.10014ZM17.6284 18.5144C15.7802 20.1159 13.4158 20.9959 10.9703 20.9925C5.34506 20.9925 0.785156 16.4325 0.785156 10.8073C0.785156 8.63171 1.46756 6.61504 2.62867 4.96097L5.87775 10.8073H2.82219C2.82206 12.4047 3.29148 13.9669 4.17207 15.2997C5.05267 16.6325 6.3056 17.677 7.77507 18.3034C9.24454 18.9299 10.8657 19.1105 12.4371 18.823C14.0084 18.5354 15.4605 17.7924 16.6129 16.6862L17.6284 18.5144Z" fill="#149BFC"/>
</svg>
