<svg width="20" height="23" viewBox="0 0 20 23" fill="none" xmlns="http://www.w3.org/2000/svg">
<path d="M0.710938 16.9735C2.11261 10.7715 5.10748 5.04224 9.39992 0.351312C9.47624 0.268278 9.56897 0.201991 9.67223 0.156647C9.77549 0.111303 9.88705 0.0878906 9.99983 0.0878906C10.1126 0.0878906 10.2242 0.111303 10.3274 0.156647C10.4307 0.201991 10.5234 0.268278 10.5997 0.351312C10.7688 0.534646 10.9094 0.689461 11.0204 0.814738C15.091 5.42035 17.9347 10.9779 19.2887 16.9735C17.1081 17.4329 14.8683 17.7344 12.5828 17.8637L10.4551 22.1191C10.4128 22.2036 10.3478 22.2746 10.2674 22.3242C10.187 22.3739 10.0943 22.4002 9.99983 22.4002C9.90533 22.4002 9.8127 22.3739 9.7323 22.3242C9.6519 22.2746 9.58689 22.2036 9.54455 22.1191L7.41686 17.8637C5.16233 17.7363 2.92064 17.4387 0.710938 16.9735V16.9735ZM7.53298 15.8297L8.7114 15.897L9.99983 18.4738L11.2883 15.897L12.4667 15.8297C13.9086 15.7481 15.3456 15.5938 16.772 15.3673C15.4206 10.735 13.1137 6.4372 9.99983 2.75094C6.88597 6.4372 4.57903 10.735 3.2277 15.3673C4.64853 15.5934 6.08464 15.7483 7.53298 15.8297V15.8297ZM9.99983 13.863C9.18944 13.863 8.41225 13.5411 7.83922 12.968C7.2662 12.395 6.94427 11.6178 6.94427 10.8074C6.94427 9.99704 7.2662 9.21985 7.83922 8.64682C8.41225 8.07379 9.18944 7.75187 9.99983 7.75187C10.8102 7.75187 11.5874 8.07379 12.1604 8.64682C12.7335 9.21985 13.0554 9.99704 13.0554 10.8074C13.0554 11.6178 12.7335 12.395 12.1604 12.968C11.5874 13.5411 10.8102 13.863 9.99983 13.863ZM9.99983 11.8259C10.27 11.8259 10.529 11.7186 10.72 11.5276C10.911 11.3366 11.0183 11.0776 11.0183 10.8074C11.0183 10.5373 10.911 10.2782 10.72 10.0872C10.529 9.89621 10.27 9.78891 9.99983 9.78891C9.7297 9.78891 9.47064 9.89621 9.27963 10.0872C9.08862 10.2782 8.98131 10.5373 8.98131 10.8074C8.98131 11.0776 9.08862 11.3366 9.27963 11.5276C9.47064 11.7186 9.7297 11.8259 9.99983 11.8259V11.8259Z" fill="#FC1414"/>
</svg>
