<svg width="16" height="15" viewBox="0 0 16 15" fill="none" xmlns="http://www.w3.org/2000/svg">
<path d="M8.24382 11.5487L7.9996 11.412L7.75537 11.5487L4.21147 13.5324L5.00286 9.54886L5.05739 9.27434L4.8519 9.08433L1.86974 6.32677L5.90304 5.84842L6.18095 5.81546L6.29817 5.56134L7.9996 1.87309L9.70102 5.56134L9.81824 5.81546L10.0961 5.84842L14.1295 6.32677L11.1473 9.08433L10.9418 9.27434L10.9963 9.54886L11.7877 13.5324L8.24382 11.5487ZM10.4589 12.4754L11.4049 13.0049L11.1935 11.9416L10.644 9.17774L12.713 7.26391L13.5087 6.52795L12.4324 6.40034L9.63375 6.06854L8.45363 3.50969L7.99954 2.52508L7.54554 3.50973L6.36544 6.06912L3.56693 6.40033L2.49031 6.52775L3.28618 7.26391L5.35519 9.17774L4.80566 11.9416L4.59425 13.0049L5.54026 12.4754L7.9996 11.099L10.4589 12.4754Z" fill="#262338" stroke="#262338"/>
</svg>
