<svg width="22" height="21" viewBox="0 0 22 21" fill="none" xmlns="http://www.w3.org/2000/svg">
<path d="M10.9996 20.9924C5.37436 20.9924 0.814453 16.4325 0.814453 10.8073C0.814453 5.18198 5.37436 0.62207 10.9996 0.62207C16.6249 0.62207 21.1848 5.18198 21.1848 10.8073C21.1848 16.4325 16.6249 20.9924 10.9996 20.9924ZM10.9996 18.9554C13.1607 18.9554 15.2332 18.0969 16.7613 16.5689C18.2893 15.0408 19.1478 12.9683 19.1478 10.8073C19.1478 8.64623 18.2893 6.57372 16.7613 5.04565C15.2332 3.51757 13.1607 2.65911 10.9996 2.65911C8.83862 2.65911 6.7661 3.51757 5.23803 5.04565C3.70995 6.57372 2.85149 8.64623 2.85149 10.8073C2.85149 12.9683 3.70995 15.0408 5.23803 16.5689C6.7661 18.0969 8.83862 18.9554 10.9996 18.9554ZM15.583 6.22392L13.0367 12.8443L6.41631 15.3906L8.9626 8.77022L15.583 6.22392ZM10.9996 11.8258C11.2698 11.8258 11.5288 11.7185 11.7198 11.5275C11.9108 11.3364 12.0182 11.0774 12.0182 10.8073C12.0182 10.5371 11.9108 10.2781 11.7198 10.0871C11.5288 9.89605 11.2698 9.78874 10.9996 9.78874C10.7295 9.78874 10.4704 9.89605 10.2794 10.0871C10.0884 10.2781 9.98112 10.5371 9.98112 10.8073C9.98112 11.0774 10.0884 11.3364 10.2794 11.5275C10.4704 11.7185 10.7295 11.8258 10.9996 11.8258Z" fill="#00A154"/>
</svg>
