<svg width="12" height="15" viewBox="0 0 12 15" fill="none" xmlns="http://www.w3.org/2000/svg">
<path d="M11.1992 10.4657C11.2396 10.6274 11.2783 10.7897 11.3151 10.9525C10.1075 11.1844 8.87197 11.339 7.61424 11.4102L6.28444 14.0698M11.1992 10.4657C11.3633 10.4343 11.5269 10.4014 11.6899 10.3672C10.8034 6.80596 9.07136 3.50807 6.63774 0.754573M11.1992 10.4657C10.02 10.6911 8.81383 10.8415 7.58599 10.911L7.29664 10.9274L7.16703 11.1866L5.99989 13.5209M11.1992 10.4657C10.3304 6.99096 8.63844 3.7733 6.26322 1.08583M6.63774 0.754573C6.56835 0.676274 6.48051 0.579515 6.37483 0.464932C6.32713 0.413035 6.26918 0.371606 6.20464 0.343266C6.1401 0.314926 6.07038 0.300293 5.99989 0.300293C5.9294 0.300293 5.85968 0.314926 5.79514 0.343266C5.7306 0.371606 5.67265 0.413035 5.62495 0.464932M6.63774 0.754573L6.26353 1.08619C6.26343 1.08607 6.26332 1.08595 6.26322 1.08583M6.63774 0.754573L6.26309 1.08569C6.26313 1.08574 6.26318 1.08579 6.26322 1.08583M5.62495 0.464932C3.05481 3.27367 1.22898 6.67803 0.309926 10.3672C0.473241 10.4015 0.636837 10.4343 0.8007 10.4656M5.62495 0.464932L5.99307 0.803286C5.99394 0.802343 5.995 0.801589 5.99617 0.801074C5.99734 0.800559 5.99861 0.800293 5.99989 0.800293C6.00117 0.800293 6.00244 0.800559 6.00361 0.801074C6.00479 0.801589 6.00584 0.802343 6.00671 0.803287L6.00728 0.803902C6.11156 0.916975 6.19687 1.01098 6.26322 1.08583M5.62495 0.464932L5.99382 0.80247C3.48513 3.54406 1.70145 6.86581 0.8007 10.4656M0.8007 10.4656C0.76023 10.6274 0.721543 10.7896 0.684652 10.9525C1.90657 11.187 3.14293 11.34 4.38554 11.4102L5.71534 14.0698M0.8007 10.4656C1.99372 10.6936 3.20071 10.8424 4.41376 10.911L4.70313 10.9273L4.83275 11.1866L5.99989 13.5209M5.71534 14.0698C5.74181 14.1226 5.78243 14.167 5.83269 14.198C5.88294 14.229 5.94083 14.2455 5.99989 14.2455C6.05895 14.2455 6.11684 14.229 6.1671 14.198C6.21735 14.167 6.25798 14.1226 6.28444 14.0698M5.71534 14.0698L5.99955 13.9273L5.83723 13.8462L5.83744 13.8458M5.71534 14.0698L5.99959 13.9277L5.99989 13.9275L6.0002 13.9277L6.28444 14.0698M6.28444 14.0698L6.00023 13.9273L6.16256 13.8462L6.16234 13.8458M6.16234 13.8458L5.99989 13.5209M6.16234 13.8458C6.14724 13.8156 6.12404 13.7903 6.09535 13.7726C6.06666 13.7548 6.03361 13.7455 5.99989 13.7455C5.96618 13.7455 5.93313 13.7548 5.90443 13.7726C5.87575 13.7903 5.85255 13.8156 5.83744 13.8458M6.16234 13.8458L5.99989 13.9272L5.83744 13.8458M5.99989 13.5209L5.83744 13.8458M6.44711 12.0151L7.12283 10.6637L7.56992 10.6381C7.57 10.6381 7.57007 10.6381 7.57015 10.6381C8.4881 10.5862 9.40284 10.4879 10.3109 10.3438L10.8714 10.2548L10.7125 9.70992C9.84832 6.74766 8.37309 3.99932 6.38186 1.64205L5.99989 1.18987L5.61793 1.64205C3.62669 3.99932 2.15146 6.74766 1.28732 9.70992L1.12843 10.2546L1.68873 10.3437C2.5933 10.4877 3.50759 10.5863 4.42963 10.6381C4.42976 10.6381 4.42989 10.6382 4.43002 10.6382L4.87695 10.6637L5.55268 12.0151L5.99989 12.9095L6.44711 12.0151ZM5.99989 8.40972C5.62601 8.40972 5.26744 8.2612 5.00307 7.99683C4.73869 7.73245 4.59017 7.37388 4.59017 7C4.59017 6.62612 4.73869 6.26755 5.00307 6.00318C5.26744 5.7388 5.62601 5.59028 5.99989 5.59028C6.37377 5.59028 6.73234 5.7388 6.99672 6.00318C7.26109 6.26755 7.40961 6.62612 7.40961 7C7.40961 7.37388 7.26109 7.73245 6.99672 7.99683C6.73234 8.2612 6.37377 8.40972 5.99989 8.40972ZM5.99989 8.13658C6.30133 8.13658 6.59042 8.01683 6.80357 7.80368C7.01672 7.59053 7.13647 7.30144 7.13647 7C7.13647 6.69856 7.01672 6.40947 6.80357 6.19632C6.59042 5.98317 6.30133 5.86343 5.99989 5.86343C5.69845 5.86343 5.40936 5.98317 5.19621 6.19632C4.98306 6.40947 4.86332 6.69856 4.86332 7C4.86332 7.30144 4.98306 7.59053 5.19621 7.80368C5.40936 8.01683 5.69845 8.13658 5.99989 8.13658Z" fill="#262338" stroke="#262338"/>
</svg>
