<svg width="20" height="21" viewBox="0 0 20 21" fill="none" xmlns="http://www.w3.org/2000/svg">
<path d="M8.95186 0.62207C13.0952 0.62207 16.5154 3.71429 17.0328 7.71605L19.3244 11.3206C19.4752 11.5579 19.4446 11.9113 19.0953 12.0621L17.1 12.9156V15.8998C17.1 17.0253 16.1884 17.9369 15.063 17.9369H13.027L13.0259 20.9924H3.85927V17.23C3.85927 16.0282 3.41519 14.8905 2.59223 13.8638C1.47288 12.4685 0.803711 10.6973 0.803711 8.77022C0.803711 4.2704 4.45204 0.62207 8.95186 0.62207ZM8.95186 2.65911C5.57649 2.65911 2.84075 5.39485 2.84075 8.77022C2.84075 10.1809 3.31741 11.5131 4.18112 12.5897C5.29538 13.9789 5.8963 15.5607 5.8963 17.23V18.9554H10.9889L10.9909 15.8998H15.063V11.5732L16.6417 10.8969L15.0701 8.42698L15.012 7.97679C14.6209 4.95179 12.0319 2.65911 8.95186 2.65911ZM8.95186 5.71466C9.51408 5.71466 9.97038 6.17096 9.97038 6.73318V7.7517H10.9889C11.5511 7.7517 12.0074 8.208 12.0074 8.77022C12.0074 9.33244 11.5511 9.78874 10.9889 9.78874H9.97038V10.8073C9.97038 11.3695 9.51408 11.8258 8.95186 11.8258C8.38964 11.8258 7.93334 11.3695 7.93334 10.8073V9.78772L6.91482 9.78874C6.3526 9.78874 5.8963 9.33244 5.8963 8.77022C5.8963 8.208 6.3526 7.7517 6.91482 7.7517L7.93334 7.75068V6.73318C7.93334 6.17096 8.38964 5.71466 8.95186 5.71466Z" fill="#44E1EB"/>
</svg>
