<svg width="12" height="12" viewBox="0 0 12 12" fill="none" xmlns="http://www.w3.org/2000/svg">
<path d="M2.2836 8.34325L2.40156 7.91156C2.54088 7.40167 2.84395 6.95171 3.26411 6.63098C3.68425 6.31024 4.19818 6.13651 4.72676 6.13653L2.2836 8.34325ZM2.2836 8.34325L2.69962 8.50817M2.2836 8.34325L2.69962 8.50817M2.69962 8.50817C3.00681 8.62994 3.2615 8.85571 3.41922 9.14609C3.57695 9.43646 3.62771 9.773 3.56264 10.097C3.49757 10.421 3.32081 10.7118 3.0632 10.9188C2.80559 11.1257 2.48349 11.2357 2.1531 11.2294C1.82271 11.2231 1.50502 11.101 1.25545 10.8844C1.00589 10.6678 0.840307 10.3705 0.787595 10.0442C0.734882 9.71803 0.79839 9.38366 0.967035 9.09949C1.13568 8.81532 1.39875 8.59938 1.71035 8.48937L2.04389 8.37161M2.69962 8.50817L2.04389 8.37161M2.04389 8.37161V8.01789M2.04389 8.37161V8.01789M2.04389 8.01789V3.98201V3.62841M2.04389 8.01789V3.62841M2.04389 3.62841L1.7105 3.51059M2.04389 3.62841L1.7105 3.51059M1.7105 3.51059C1.3968 3.39972 1.1324 3.18152 0.964029 2.89456C0.795657 2.60759 0.734158 2.27034 0.790401 1.94242C0.846644 1.6145 1.01701 1.31702 1.27138 1.10256C1.52575 0.888099 1.84775 0.770474 2.18046 0.770474C2.51317 0.770474 2.83517 0.888099 3.08955 1.10256C3.34392 1.31702 3.51428 1.6145 3.57052 1.94242C3.62677 2.27034 3.56527 2.60759 3.3969 2.89456C3.22852 3.18152 2.96412 3.39972 2.65043 3.51059L2.31704 3.62841M1.7105 3.51059L2.31704 3.62841M2.31704 3.62841V3.98201M2.31704 3.62841V3.98201M2.31704 3.98201V5.99995V7.00091M2.31704 3.98201V7.00091M2.31704 7.00091L3.11734 6.39972M2.31704 7.00091L3.11734 6.39972M3.11734 6.39972C3.56597 6.06271 4.12206 5.86338 4.72676 5.86338H7.27303C7.27304 5.86338 7.27305 5.86338 7.27306 5.86338C7.80163 5.86339 8.31556 5.68966 8.73571 5.36893C9.15586 5.04819 9.45893 4.59823 9.59826 4.08834L9.71625 3.65649L9.30002 3.49167C8.99134 3.36943 8.73567 3.14222 8.57804 2.85003C8.4204 2.55783 8.3709 2.21939 8.43824 1.89429C8.50559 1.56919 8.68547 1.27827 8.94621 1.07274C9.20695 0.867218 9.53184 0.760268 9.86368 0.770719C10.1955 0.781171 10.513 0.908355 10.7603 1.12988L11.0939 0.757458M3.11734 6.39972L11.0939 0.757458M11.0939 0.757458L10.7603 1.12988C11.0076 1.35141 11.1688 1.65307 11.2156 1.98177C11.2623 2.31046 11.1916 2.64512 11.0159 2.92681C10.8402 3.2085 10.5708 3.41918 10.255 3.52175L9.96834 3.61486M11.0939 0.757458L9.96834 3.61486M9.96834 3.61486L9.91682 3.91181M9.96834 3.61486L9.91682 3.91181M9.91682 3.91181C9.80875 4.53462 9.48428 5.09929 9.00062 5.50629M9.91682 3.91181L9.00062 5.50629M9.00062 5.50629C8.51696 5.91328 7.90516 6.13647 7.27306 6.13653M9.00062 5.50629L7.27306 6.13653M7.27306 6.13653C7.27304 6.13653 7.27303 6.13653 7.27302 6.13653M7.27306 6.13653H7.27302M7.27302 6.13653H4.72678H7.27302ZM9.01567 2.98418L9.36922 2.63063L9.01567 2.98419C9.22882 3.19734 9.51791 3.31708 9.81935 3.31708C10.1208 3.31708 10.4099 3.19734 10.623 2.98419C10.8362 2.77104 10.9559 2.48194 10.9559 2.18051C10.9559 1.87907 10.8362 1.58998 10.623 1.37683C10.4099 1.16368 10.1208 1.04393 9.81935 1.04393C9.51791 1.04393 9.22882 1.16368 9.01567 1.37683L9.36922 1.73038L9.01567 1.37683C8.80252 1.58998 8.68278 1.87907 8.68278 2.18051C8.68278 2.48194 8.80252 2.77104 9.01567 2.98418ZM2.18046 8.68282C1.87902 8.68282 1.58993 8.80257 1.37678 9.01572C1.16363 9.22886 1.04389 9.51796 1.04389 9.8194C1.04389 10.1208 1.16363 10.4099 1.37678 10.6231C1.58993 10.8362 1.87903 10.956 2.18046 10.956C2.4819 10.956 2.77099 10.8362 2.98414 10.6231C3.19729 10.4099 3.31704 10.1208 3.31704 9.8194C3.31704 9.51796 3.19729 9.22886 2.98414 9.01572C2.77099 8.80257 2.4819 8.68282 2.18046 8.68282ZM2.18046 1.04393C1.87902 1.04393 1.58993 1.16368 1.37678 1.37683C1.16363 1.58998 1.04389 1.87907 1.04389 2.18051C1.04389 2.48195 1.16363 2.77104 1.37678 2.98419C1.58993 3.19734 1.87902 3.31708 2.18046 3.31708C2.4819 3.31708 2.77099 3.19734 2.98414 2.98419C3.19729 2.77104 3.31704 2.48195 3.31704 2.18051C3.31704 1.87907 3.19729 1.58998 2.98414 1.37683C2.77099 1.16368 2.4819 1.04393 2.18046 1.04393Z" fill="#262338" stroke="#262338"/>
</svg>
