<svg width="75" height="33" viewBox="0 0 75 33" fill="none" xmlns="http://www.w3.org/2000/svg">
<path d="M14.7089 14.309C14.7089 9.54896 11.5648 6.65896 7.70308 6.65896C3.84134 6.65896 0.697266 9.54896 0.697266 14.309V17.029C0.697266 21.789 3.84134 24.679 7.70308 24.679C11.5648 24.679 14.7089 21.789 14.7089 17.029V14.309ZM11.9749 17.199C11.9749 20.327 10.0611 22.095 7.70308 22.095C5.34503 22.095 3.43124 20.327 3.43124 17.199V14.105C3.43124 11.011 5.34503 9.24296 7.70308 9.24296C10.0611 9.24296 11.9749 11.011 11.9749 14.105V17.199Z" fill="#262338"/>
<path d="M32.2015 14.309C32.2015 9.54896 29.0575 6.65896 25.1957 6.65896C21.334 6.65896 18.1899 9.54896 18.1899 14.309V31.309C18.1899 32.057 18.8051 32.669 19.5569 32.669C20.3087 32.669 20.9239 32.057 20.9239 31.309V22.843C22.2225 24.033 23.5895 24.679 25.4349 24.679C29.16 24.679 32.2015 21.925 32.2015 17.301V14.309ZM29.4676 17.199C29.4676 20.327 27.5538 22.095 25.1957 22.095C22.8377 22.095 20.9239 20.157 20.9239 17.743V14.105C20.9239 11.011 22.8377 9.24296 25.1957 9.24296C27.5538 9.24296 29.4676 11.011 29.4676 14.105V17.199Z" fill="#262338"/>
<path d="M49.6894 14.309C49.6894 9.54896 46.5453 6.65896 42.6836 6.65896C38.8218 6.65896 35.6777 9.54896 35.6777 14.309V31.309C35.6777 32.057 36.2929 32.669 37.0447 32.669C37.7966 32.669 38.4117 32.057 38.4117 31.309V22.843C39.7104 24.033 41.0774 24.679 42.9228 24.679C46.6478 24.679 49.6894 21.925 49.6894 17.301V14.309ZM46.9554 17.199C46.9554 20.327 45.0416 22.095 42.6836 22.095C40.3255 22.095 38.4117 20.157 38.4117 17.743V14.105C38.4117 11.011 40.3255 9.24296 42.6836 9.24296C45.0416 9.24296 46.9554 11.011 46.9554 14.105V17.199Z" fill="#262338"/>
<path d="M55.011 24.169C55.7629 24.169 56.378 23.557 56.378 22.809V8.52896C56.378 7.78096 55.7629 7.16896 55.011 7.16896C54.2592 7.16896 53.644 7.78096 53.644 8.52896V22.809C53.644 23.557 54.2592 24.169 55.011 24.169ZM56.7881 2.74896C56.7881 1.76296 56.0021 0.980957 55.011 0.980957C54.0541 0.980957 53.2339 1.76296 53.2339 2.74896C53.2339 3.73496 54.0541 4.51696 55.011 4.51696C56.0021 4.51696 56.7881 3.73496 56.7881 2.74896Z" fill="#262338"/>
<path d="M74.3478 14.309C74.3478 9.54896 71.2037 6.65896 67.3419 6.65896C63.4802 6.65896 60.3361 9.54896 60.3361 14.309V17.029C60.3361 21.789 63.4802 24.679 67.3419 24.679C71.2037 24.679 74.3478 21.789 74.3478 17.029V14.309ZM71.6138 17.199C71.6138 20.327 69.7 22.095 67.3419 22.095C64.9839 22.095 63.0701 20.327 63.0701 17.199V14.105C63.0701 11.011 64.9839 9.24296 67.3419 9.24296C69.7 9.24296 71.6138 11.011 71.6138 14.105V17.199Z" fill="#262338"/>
</svg>
