<svg width="118" height="34" viewBox="0 0 118 34" fill="none" xmlns="http://www.w3.org/2000/svg">
<path fill-rule="evenodd" clip-rule="evenodd" d="M17.0874 31.3507C25.0537 31.3507 31.5117 24.9256 31.5117 17C31.5117 9.07436 25.0537 2.64935 17.0874 2.64935C9.12098 2.64935 2.66296 9.07436 2.66296 17C2.66296 24.9256 9.12098 31.3507 17.0874 31.3507ZM17.0874 34C26.5244 34 34.1747 26.3888 34.1747 17C34.1747 7.61116 26.5244 0 17.0874 0C7.65027 0 0 7.61116 0 17C0 26.3888 7.65027 34 17.0874 34Z" fill="#149BFC"/>
<path fill-rule="evenodd" clip-rule="evenodd" d="M15.6293 13.5149C15.6293 16.3455 13.3229 18.6401 10.4777 18.6401C7.63261 18.6401 5.32617 16.3455 5.32617 13.5149C5.32617 10.6843 7.63261 8.38965 10.4777 8.38965C13.3229 8.38965 15.6293 10.6843 15.6293 13.5149ZM14.2978 13.5149C14.2978 15.6139 12.5875 17.3154 10.4777 17.3154C8.75586 17.3154 7.30006 16.182 6.82295 14.6242C7.36287 15.083 8.06354 15.36 8.82923 15.36C10.5363 15.36 11.9202 13.9832 11.9202 12.2848C11.9202 11.2103 11.3662 10.2645 10.5269 9.71463C12.614 9.74082 14.2978 11.4322 14.2978 13.5149Z" fill="#149BFC"/>
<path fill-rule="evenodd" clip-rule="evenodd" d="M28.5951 13.5149C28.5951 16.3455 26.2887 18.6401 23.4436 18.6401C20.5984 18.6401 18.292 16.3455 18.292 13.5149C18.292 10.6843 20.5984 8.38965 23.4436 8.38965C26.2887 8.38965 28.5951 10.6843 28.5951 13.5149ZM27.2636 13.5149C27.2636 15.6139 25.5533 17.3154 23.4436 17.3154C21.7217 17.3154 20.2659 16.182 19.7888 14.6242C20.3287 15.083 21.0294 15.36 21.7951 15.36C23.5021 15.36 24.886 13.9832 24.886 12.2848C24.886 11.2103 24.332 10.2645 23.4927 9.71463C25.5799 9.74083 27.2636 11.4322 27.2636 13.5149Z" fill="#149BFC"/>
<path d="M54.7089 15.3087C54.7089 10.5487 51.5648 7.65871 47.7031 7.65871C43.8413 7.65871 40.6973 10.5487 40.6973 15.3087V18.0287C40.6973 22.7887 43.8413 25.6787 47.7031 25.6787C51.5648 25.6787 54.7089 22.7887 54.7089 18.0287V15.3087ZM51.9749 18.1987C51.9749 21.3267 50.0611 23.0947 47.7031 23.0947C45.345 23.0947 43.4312 21.3267 43.4312 18.1987V15.1047C43.4312 12.0107 45.345 10.2427 47.7031 10.2427C50.0611 10.2427 51.9749 12.0107 51.9749 15.1047V18.1987Z" fill="#262338"/>
<path d="M72.2015 15.3087C72.2015 10.5487 69.0575 7.65871 65.1957 7.65871C61.334 7.65871 58.1899 10.5487 58.1899 15.3087V32.3087C58.1899 33.0567 58.8051 33.6687 59.5569 33.6687C60.3087 33.6687 60.9239 33.0567 60.9239 32.3087V23.8427C62.2225 25.0327 63.5895 25.6787 65.4349 25.6787C69.16 25.6787 72.2015 22.9247 72.2015 18.3007V15.3087ZM69.4676 18.1987C69.4676 21.3267 67.5538 23.0947 65.1957 23.0947C62.8377 23.0947 60.9239 21.1567 60.9239 18.7427V15.1047C60.9239 12.0107 62.8377 10.2427 65.1957 10.2427C67.5538 10.2427 69.4676 12.0107 69.4676 15.1047V18.1987Z" fill="#262338"/>
<path d="M89.6894 15.3087C89.6894 10.5487 86.5453 7.65871 82.6836 7.65871C78.8218 7.65871 75.6777 10.5487 75.6777 15.3087V32.3087C75.6777 33.0567 76.2929 33.6687 77.0447 33.6687C77.7966 33.6687 78.4117 33.0567 78.4117 32.3087V23.8427C79.7104 25.0327 81.0774 25.6787 82.9228 25.6787C86.6478 25.6787 89.6894 22.9247 89.6894 18.3007V15.3087ZM86.9554 18.1987C86.9554 21.3267 85.0416 23.0947 82.6836 23.0947C80.3255 23.0947 78.4117 21.1567 78.4117 18.7427V15.1047C78.4117 12.0107 80.3255 10.2427 82.6836 10.2427C85.0416 10.2427 86.9554 12.0107 86.9554 15.1047V18.1987Z" fill="#262338"/>
<path d="M95.011 25.1687C95.7629 25.1687 96.378 24.5567 96.378 23.8087V9.52871C96.378 8.78071 95.7629 8.16871 95.011 8.16871C94.2592 8.16871 93.644 8.78071 93.644 9.52871V23.8087C93.644 24.5567 94.2592 25.1687 95.011 25.1687ZM96.7881 3.74871C96.7881 2.76271 96.0021 1.98071 95.011 1.98071C94.0541 1.98071 93.2339 2.76271 93.2339 3.74871C93.2339 4.73471 94.0541 5.51671 95.011 5.51671C96.0021 5.51671 96.7881 4.73471 96.7881 3.74871Z" fill="#262338"/>
<path d="M114.348 15.3087C114.348 10.5487 111.204 7.65871 107.342 7.65871C103.48 7.65871 100.336 10.5487 100.336 15.3087V18.0287C100.336 22.7887 103.48 25.6787 107.342 25.6787C111.204 25.6787 114.348 22.7887 114.348 18.0287V15.3087ZM111.614 18.1987C111.614 21.3267 109.7 23.0947 107.342 23.0947C104.984 23.0947 103.07 21.3267 103.07 18.1987V15.1047C103.07 12.0107 104.984 10.2427 107.342 10.2427C109.7 10.2427 111.614 12.0107 111.614 15.1047V18.1987Z" fill="#262338"/>
</svg>
