<svg width="96" height="42" viewBox="0 0 96 42" fill="none" xmlns="http://www.w3.org/2000/svg">
<path d="M18.253 17.8115C18.253 11.6515 14.203 7.91148 9.22854 7.91148C4.25409 7.91148 0.204102 11.6515 0.204102 17.8115V21.3315C0.204102 27.4915 4.25409 31.2315 9.22854 31.2315C14.203 31.2315 18.253 27.4915 18.253 21.3315V17.8115ZM14.7312 21.5515C14.7312 25.5995 12.266 27.8875 9.22854 27.8875C6.19105 27.8875 3.72583 25.5995 3.72583 21.5515V17.5475C3.72583 13.5435 6.19105 11.2555 9.22854 11.2555C12.266 11.2555 14.7312 13.5435 14.7312 17.5475V21.5515Z" fill="white"/>
<path d="M40.7859 17.8115C40.7859 11.6515 36.7359 7.91148 31.7614 7.91148C26.787 7.91148 22.737 11.6515 22.737 17.8115V39.8115C22.737 40.7795 23.5294 41.5715 24.4979 41.5715C25.4663 41.5715 26.2587 40.7795 26.2587 39.8115V28.8555C27.9316 30.3955 29.6924 31.2315 32.0696 31.2315C36.868 31.2315 40.7859 27.6675 40.7859 21.6835V17.8115ZM37.2641 21.5515C37.2641 25.5995 34.7989 27.8875 31.7614 27.8875C28.7239 27.8875 26.2587 25.3795 26.2587 22.2555V17.5475C26.2587 13.5435 28.7239 11.2555 31.7614 11.2555C34.7989 11.2555 37.2641 13.5435 37.2641 17.5475V21.5515Z" fill="white"/>
<path d="M63.3126 17.8115C63.3126 11.6515 59.2626 7.91148 54.2881 7.91148C49.3137 7.91148 45.2637 11.6515 45.2637 17.8115V39.8115C45.2637 40.7795 46.0561 41.5715 47.0246 41.5715C47.993 41.5715 48.7854 40.7795 48.7854 39.8115V28.8555C50.4583 30.3955 52.2191 31.2315 54.5963 31.2315C59.3947 31.2315 63.3126 27.6675 63.3126 21.6835V17.8115ZM59.7909 21.5515C59.7909 25.5995 57.3256 27.8875 54.2881 27.8875C51.2507 27.8875 48.7854 25.3795 48.7854 22.2555V17.5475C48.7854 13.5435 51.2507 11.2555 54.2881 11.2555C57.3256 11.2555 59.7909 13.5435 59.7909 17.5475V21.5515Z" fill="white"/>
<path d="M70.1676 30.5715C71.1361 30.5715 71.9284 29.7795 71.9284 28.8115V10.3315C71.9284 9.36348 71.1361 8.57148 70.1676 8.57148C69.1991 8.57148 68.4067 9.36348 68.4067 10.3315V28.8115C68.4067 29.7795 69.1991 30.5715 70.1676 30.5715ZM72.4567 2.85148C72.4567 1.57548 71.4442 0.563477 70.1676 0.563477C68.935 0.563477 67.8785 1.57548 67.8785 2.85148C67.8785 4.12748 68.935 5.13948 70.1676 5.13948C71.4442 5.13948 72.4567 4.12748 72.4567 2.85148Z" fill="white"/>
<path d="M95.0759 17.8115C95.0759 11.6515 91.0259 7.91148 86.0515 7.91148C81.077 7.91148 77.027 11.6515 77.027 17.8115V21.3315C77.027 27.4915 81.077 31.2315 86.0515 31.2315C91.0259 31.2315 95.0759 27.4915 95.0759 21.3315V17.8115ZM91.5542 21.5515C91.5542 25.5995 89.089 27.8875 86.0515 27.8875C83.014 27.8875 80.5488 25.5995 80.5488 21.5515V17.5475C80.5488 13.5435 83.014 11.2555 86.0515 11.2555C89.089 11.2555 91.5542 13.5435 91.5542 17.5475V21.5515Z" fill="white"/>
</svg>
