<svg width="35" height="34" viewBox="0 0 35 34" fill="none" xmlns="http://www.w3.org/2000/svg">
<path fill-rule="evenodd" clip-rule="evenodd" d="M17.0874 31.3506C25.0537 31.3506 31.5117 24.9256 31.5117 17C31.5117 9.07436 25.0537 2.64935 17.0874 2.64935C9.12098 2.64935 2.66296 9.07436 2.66296 17C2.66296 24.9256 9.12098 31.3506 17.0874 31.3506ZM17.0874 34C26.5244 34 34.1747 26.3888 34.1747 17C34.1747 7.61116 26.5244 0 17.0874 0C7.65027 0 0 7.61116 0 17C0 26.3888 7.65027 34 17.0874 34Z" fill="#149BFC"/>
<path fill-rule="evenodd" clip-rule="evenodd" d="M15.6293 13.5149C15.6293 16.3455 13.3229 18.6401 10.4777 18.6401C7.63261 18.6401 5.32617 16.3455 5.32617 13.5149C5.32617 10.6843 7.63261 8.38965 10.4777 8.38965C13.3229 8.38965 15.6293 10.6843 15.6293 13.5149ZM14.2978 13.5149C14.2978 15.6139 12.5875 17.3154 10.4777 17.3154C8.75586 17.3154 7.30006 16.182 6.82295 14.6242C7.36287 15.083 8.06354 15.36 8.82923 15.36C10.5363 15.36 11.9202 13.9832 11.9202 12.2848C11.9202 11.2103 11.3662 10.2645 10.5269 9.71463C12.614 9.74082 14.2978 11.4322 14.2978 13.5149Z" fill="#149BFC"/>
<path fill-rule="evenodd" clip-rule="evenodd" d="M28.5951 13.5149C28.5951 16.3455 26.2887 18.6401 23.4436 18.6401C20.5984 18.6401 18.292 16.3455 18.292 13.5149C18.292 10.6843 20.5984 8.38965 23.4436 8.38965C26.2887 8.38965 28.5951 10.6843 28.5951 13.5149ZM27.2636 13.5149C27.2636 15.6139 25.5533 17.3154 23.4436 17.3154C21.7217 17.3154 20.2659 16.182 19.7888 14.6242C20.3287 15.083 21.0294 15.36 21.7951 15.36C23.5021 15.36 24.886 13.9832 24.886 12.2848C24.886 11.2103 24.332 10.2645 23.4927 9.71463C25.5799 9.74083 27.2636 11.4322 27.2636 13.5149Z" fill="#149BFC"/>
</svg>
