<svg width="45" height="44" viewBox="0 0 45 44" fill="none" xmlns="http://www.w3.org/2000/svg">
<path fill-rule="evenodd" clip-rule="evenodd" d="M22.7911 40.5714C33.0529 40.5714 41.3717 32.2567 41.3717 22C41.3717 11.7433 33.0529 3.42857 22.7911 3.42857C12.5293 3.42857 4.21053 11.7433 4.21053 22C4.21053 32.2567 12.5293 40.5714 22.7911 40.5714ZM22.7911 44C34.9473 44 44.8019 34.1503 44.8019 22C44.8019 9.84974 34.9473 0 22.7911 0C10.6349 0 0.780273 9.84974 0.780273 22C0.780273 34.1503 10.6349 44 22.7911 44Z" fill="#149BFC"/>
<path fill-rule="evenodd" clip-rule="evenodd" d="M20.9125 17.4898C20.9125 21.1529 17.9415 24.1225 14.2765 24.1225C10.6116 24.1225 7.64062 21.1529 7.64062 17.4898C7.64062 13.8267 10.6116 10.8572 14.2765 10.8572C17.9415 10.8572 20.9125 13.8267 20.9125 17.4898ZM19.1973 17.4898C19.1973 20.2062 16.9942 22.4082 14.2765 22.4082C12.0585 22.4082 10.1833 20.9414 9.56868 18.9254C10.2642 19.5191 11.1667 19.8776 12.153 19.8776C14.352 19.8776 16.1346 18.0959 16.1346 15.898C16.1346 14.5074 15.421 13.2834 14.3399 12.5719C17.0284 12.6058 19.1973 14.7946 19.1973 17.4898Z" fill="#149BFC"/>
<path fill-rule="evenodd" clip-rule="evenodd" d="M37.6146 17.4898C37.6146 21.1529 34.6436 24.1225 30.9787 24.1225C27.3138 24.1225 24.3428 21.1529 24.3428 17.4898C24.3428 13.8267 27.3138 10.8572 30.9787 10.8572C34.6436 10.8572 37.6146 13.8267 37.6146 17.4898ZM35.8995 17.4898C35.8995 20.2062 33.6964 22.4082 30.9787 22.4082C28.7607 22.4082 26.8854 20.9414 26.2708 18.9254C26.9663 19.5191 27.8689 19.8776 28.8552 19.8776C31.0542 19.8776 32.8368 18.0959 32.8368 15.898C32.8368 14.5074 32.1232 13.2834 31.042 12.5719C33.7305 12.6058 35.8995 14.7946 35.8995 17.4898Z" fill="#149BFC"/>
</svg>
