<svg width="8" height="13" viewBox="0 0 8 13" fill="none" xmlns="http://www.w3.org/2000/svg">
<path d="M4.13683 5.09048V5.59048H4.63683H6.86102L6.79274 5.86363H4.63683H4.13683V6.36363V11.5928H3.86368V6.36363V5.86363H3.36368H1.31738V5.59048H3.36368H3.86368V5.09048V3.89881C3.86368 2.80449 3.97754 2.48554 4.14471 2.17233L4.14551 2.17082C4.31569 1.84935 4.57857 1.58647 4.90004 1.4163L4.90155 1.41549C5.21476 1.24832 5.53371 1.13446 6.62803 1.13446C6.76309 1.13446 6.88741 1.14028 7.00141 1.15126V1.40761H6.62803C5.78437 1.40761 5.41355 1.45186 5.03148 1.65627C4.75079 1.80595 4.53545 2.02122 4.38571 2.30185C4.18112 2.68407 4.13683 3.05485 4.13683 3.89881V5.09048Z" fill="#262338" stroke="#149BFC"/>
</svg>
