<svg width="15" height="4" viewBox="0 0 15 4" fill="none" xmlns="http://www.w3.org/2000/svg">
<path d="M3.71514 1.61538C3.71514 2.50754 2.99191 3.23077 2.09976 3.23077C1.20761 3.23077 0.484375 2.50754 0.484375 1.61538C0.484375 0.723232 1.20761 0 2.09976 0C2.99191 0 3.71514 0.723232 3.71514 1.61538Z" fill="#262338"/>
<path d="M9.09979 1.61538C9.09979 2.50754 8.37656 3.23077 7.4844 3.23077C6.59225 3.23077 5.86902 2.50754 5.86902 1.61538C5.86902 0.723232 6.59225 0 7.4844 0C8.37656 0 9.09979 0.723232 9.09979 1.61538Z" fill="#262338"/>
<path d="M12.869 3.23077C13.7612 3.23077 14.4844 2.50754 14.4844 1.61538C14.4844 0.723232 13.7612 0 12.869 0C11.9769 0 11.2537 0.723232 11.2537 1.61538C11.2537 2.50754 11.9769 3.23077 12.869 3.23077Z" fill="#262338"/>
</svg>
