<svg width="14" height="12" viewBox="0 0 14 12" fill="none" xmlns="http://www.w3.org/2000/svg">
<path d="M12.5921 10.9561H12.0921H4.45323H4.45274C3.64598 10.9553 2.87243 10.6347 2.30153 10.0647C1.73064 9.49466 1.40895 8.72159 1.40694 7.91484L1.40694 7.91359L1.40694 4.08676V4.0865H1.90694C1.9066 3.75221 1.97226 3.42113 2.10015 3.11226C2.22804 2.80339 2.41565 2.52281 2.65221 2.2866C2.88878 2.05039 3.16964 1.86321 3.4787 1.73578C3.78776 1.60835 4.11894 1.54319 4.45323 1.54403L12.5921 10.9561ZM12.5921 10.9561V10.4561L12.5921 4.0865L12.5921 4.08526C12.5901 3.2785 12.2684 2.50543 11.6975 1.93539C11.1266 1.36536 10.3531 1.04483 9.54632 1.04403H9.54583H4.45384L12.5921 10.9561ZM1.13379 4.0865L1.13379 4.08617C1.1335 3.65044 1.21916 3.21893 1.38588 2.81635C1.55259 2.41377 1.79708 2.04804 2.10534 1.74008C2.4136 1.43213 2.77958 1.188 3.18233 1.02169C3.58507 0.855383 4.01667 0.770151 4.4524 0.770879H4.45323H9.54583C11.3785 0.770879 12.8653 2.26248 12.8653 4.0865V11.2292H4.45323C2.62052 11.2292 1.13379 9.73761 1.13379 7.91359L1.13379 4.0865ZM8.77268 5.86347H9.04583V6.13662H8.77268V5.86347ZM4.95323 5.86347H5.22638V6.13662H4.95323V5.86347Z" fill="#262338" stroke="#262338"/>
</svg>
