<svg width="16" height="14" viewBox="0 0 16 14" fill="none" xmlns="http://www.w3.org/2000/svg">
<path d="M9.02553 5.90164L9.17089 5.33032L9.74572 3.07112L9.74574 3.07106C9.80721 2.8296 9.78421 2.57437 9.68057 2.34779C9.57693 2.12121 9.39888 1.93691 9.17601 1.82551L9.17595 1.82548L8.16097 1.31799L4.77977 6.10921L4.77963 6.10942C4.67463 6.25803 4.5355 6.37927 4.37391 6.46293L4.14402 6.01891L4.37391 6.46293C4.21236 6.54657 4.03309 6.59021 3.85117 6.59019C3.85113 6.59019 3.85109 6.59019 3.85105 6.59019H1.63462C1.5984 6.59019 1.56366 6.60458 1.53805 6.63019C1.51244 6.6558 1.49805 6.69054 1.49805 6.72676V13.0925C1.49805 13.1287 1.51244 13.1635 1.53805 13.1891C1.56366 13.2147 1.5984 13.2291 1.63462 13.2291H12.3482H12.3484C12.3754 13.2291 12.4019 13.2211 12.4244 13.206C12.4469 13.191 12.4644 13.1696 12.4747 13.1445L14.4447 8.3612C14.4831 8.26774 14.5028 8.16767 14.5027 8.06663V8.06611V6.72676C14.5027 6.52171 14.4212 6.32506 14.2762 6.18006C14.1312 6.03507 13.9346 5.95361 13.7295 5.95361H9.65546H9.06593C9.13484 6.03489 9.21989 6.10114 9.31582 6.14808C9.42156 6.19982 9.53773 6.22673 9.65546 6.22676C9.65548 6.22676 9.6555 6.22676 9.65553 6.22676H13.7295H14.2295V6.72676V8.06611V8.16504L14.1919 8.25652L12.384 12.6463L12.2565 12.9559H11.9217H4.81749H4.31749V12.4559V7.10107V6.81541L4.56357 6.67034C4.73517 6.56918 4.88567 6.43257 5.00294 6.26653C5.00296 6.26651 5.00298 6.26648 5.003 6.26645L8.00121 2.01931L8.24884 1.66852L8.63302 1.86032L9.05379 2.07039L9.05391 2.07044C9.22114 2.15399 9.35472 2.29227 9.43244 2.46229L8.97769 2.67015L9.43244 2.46229C9.51009 2.63218 9.52728 2.82353 9.48115 3.00454L9.02553 5.90164ZM9.02553 5.90164C8.96382 5.81485 8.92063 5.71613 8.89881 5.61165C8.87475 5.49641 8.87732 5.3772 8.90633 5.26311C8.90633 5.26308 8.90634 5.26306 8.90635 5.26303L9.48105 3.00493L9.02553 5.90164ZM4.04434 7.36334V6.86334H3.54434H2.2712H1.7712V7.36334V12.4559V12.9559H2.2712H3.54434H4.04434V12.4559V7.36334Z" fill="#262338" stroke="#262338"/>
</svg>
