<svg width="17" height="14" viewBox="0 0 17 14" fill="none" xmlns="http://www.w3.org/2000/svg">
<path d="M15.2181 3.37689V2.25791L14.3846 3.00442L8.60133 8.18367L2.70921 2.98499L1.87841 2.25197V3.35992V12.4481V12.9481H2.37841H14.7181H15.2181V12.4481V3.37689ZM2.77251 1.15087H1.45016L2.44169 2.02578L8.2645 7.16374L8.59774 7.45778L8.92884 7.16134L14.6676 2.02338L15.6421 1.15087H14.3341H2.77251ZM1.60717 0.608398H15.4894C15.5613 0.608398 15.6303 0.636975 15.6812 0.687841C15.732 0.738707 15.7606 0.807697 15.7606 0.879633V13.2194C15.7606 13.2913 15.732 13.3603 15.6812 13.4112C15.6303 13.462 15.5613 13.4906 15.4894 13.4906H1.60717C1.53523 13.4906 1.46625 13.462 1.41538 13.4112C1.36451 13.3603 1.33594 13.2913 1.33594 13.2194V0.879633C1.33594 0.807697 1.36451 0.738707 1.41538 0.687841C1.46625 0.636975 1.53524 0.608398 1.60717 0.608398Z" fill="#FBFFFF" stroke="#FBFFFF"/>
</svg>
