<svg width="14" height="19" viewBox="0 0 14 19" fill="none" xmlns="http://www.w3.org/2000/svg">
<path d="M7.00017 8.8881L7.64675 10.1979L7.76308 10.4335L8.02314 10.4713L9.46747 10.6814L8.42228 11.6997L8.23397 11.8832L8.27839 12.1423L8.52512 13.5817L7.23298 12.9021L7.00034 12.7798L6.76766 12.9021L5.47538 13.5812L5.72211 12.1423L5.76654 11.8833L5.57831 11.6998L4.53273 10.6806L5.97736 10.4705L6.23738 10.4327L6.35372 10.1971L7.00017 8.8881ZM7.00025 5.36231C8.62348 5.36231 10.1802 6.00714 11.328 7.15493C12.4758 8.30272 13.1206 9.85946 13.1206 11.4827C13.1206 13.1059 12.4758 14.6626 11.328 15.8104C10.1802 16.9582 8.62348 17.6031 7.00025 17.6031C5.37703 17.6031 3.82029 16.9582 2.6725 15.8104C1.52471 14.6626 0.879883 13.1059 0.879883 11.4827C0.879883 9.85946 1.52471 8.30272 2.6725 7.15493C3.82029 6.00714 5.37703 5.36231 7.00025 5.36231ZM7.00025 6.01741C5.55077 6.01741 4.16066 6.59321 3.13572 7.61815C2.11078 8.64309 1.53498 10.0332 1.53498 11.4827C1.53498 12.9322 2.11078 14.3223 3.13572 15.3472C4.16066 16.3722 5.55077 16.948 7.00025 16.948C8.44973 16.948 9.83985 16.3722 10.8648 15.3472C11.8897 14.3223 12.4655 12.9322 12.4655 11.4827C12.4655 10.0332 11.8897 8.64309 10.8648 7.61815C9.83985 6.59321 8.44973 6.01741 7.00025 6.01741ZM11.4655 1.22458V2.97332L10.7684 3.55538C9.9958 3.18738 9.17343 2.93518 8.3278 2.80671V1.22458H11.4655ZM5.67271 1.22385V2.80666C4.82733 2.935 4.00518 3.187 3.23275 3.55473L2.53498 2.97308V1.22448L5.67271 1.22385Z" stroke="#FBFFFF"/>
</svg>
