<svg width="18" height="15" viewBox="0 0 18 15" fill="none" xmlns="http://www.w3.org/2000/svg">
    <path d="M2.50069 4.99416L3.48305 13.3473H14.5167L15.499 4.99416L12.4358 7.03604L8.99986 2.22583L5.56389 7.03604L2.50069 4.99416ZM1.97284 2.80562L5.18041 4.94451L8.37805 0.468122C8.44871 0.369098 8.54201 0.288383 8.65016 0.232693C8.75832 0.177003 8.87821 0.147949 8.99986 0.147949C9.12151 0.147949 9.2414 0.177003 9.34956 0.232693C9.45771 0.288383 9.551 0.369098 9.62166 0.468122L12.8193 4.94451L16.0276 2.80562C16.1491 2.72484 16.2911 2.6805 16.4369 2.67785C16.5827 2.6752 16.7262 2.71435 16.8505 2.79067C16.9748 2.86698 17.0746 2.97728 17.1382 3.10853C17.2018 3.23978 17.2265 3.38648 17.2094 3.53132L15.9543 14.2006C15.9324 14.3864 15.8431 14.5577 15.7033 14.682C15.5634 14.8063 15.3829 14.875 15.1958 14.8751H2.80396C2.61685 14.875 2.43627 14.8063 2.29645 14.682C2.15663 14.5577 2.0673 14.3864 2.04541 14.2006L0.790344 3.53055C0.773386 3.38578 0.798201 3.23918 0.86186 3.10806C0.925519 2.97693 1.02536 2.86676 1.14961 2.79054C1.27385 2.71433 1.41731 2.67525 1.56305 2.67792C1.70878 2.68059 1.85071 2.7249 1.97208 2.80562H1.97284ZM8.99986 10.2917C8.59467 10.2917 8.20607 10.1308 7.91956 9.84426C7.63304 9.55774 7.47208 9.16915 7.47208 8.76396C7.47208 8.35876 7.63304 7.97017 7.91956 7.68365C8.20607 7.39714 8.59467 7.23618 8.99986 7.23618C9.40505 7.23618 9.79365 7.39714 10.0802 7.68365C10.3667 7.97017 10.5276 8.35876 10.5276 8.76396C10.5276 9.16915 10.3667 9.55774 10.0802 9.84426C9.79365 10.1308 9.40505 10.2917 8.99986 10.2917Z" fill="white"/>
</svg>
