<svg width="13" height="17" viewBox="0 0 13 17" fill="none" xmlns="http://www.w3.org/2000/svg">
<path d="M0.90098 16.2623C1.01783 14.9419 1.59476 13.6979 2.53957 12.7531C3.60288 11.6898 5.04503 11.0925 6.54878 11.0925C8.05252 11.0925 9.49467 11.6898 10.558 12.7531C11.5028 13.6979 12.0797 14.9419 12.1966 16.2623H11.6518C11.5365 15.086 11.0174 13.9797 10.1744 13.1367C9.21283 12.1751 7.90865 11.6349 6.54878 11.6349C5.18891 11.6349 3.88473 12.1751 2.92316 13.1367C2.08016 13.9797 1.56101 15.086 1.4458 16.2623H0.90098ZM6.54878 9.32122C4.26828 9.32122 2.42137 7.47431 2.42137 5.19381C2.42137 2.91331 4.26828 1.06641 6.54878 1.06641C8.82928 1.06641 10.6762 2.91331 10.6762 5.19381C10.6762 7.47431 8.82928 9.32122 6.54878 9.32122ZM6.54878 8.77875C8.52935 8.77875 10.1337 7.17438 10.1337 5.19381C10.1337 3.21324 8.52935 1.60887 6.54878 1.60887C4.56821 1.60887 2.96384 3.21324 2.96384 5.19381C2.96384 7.17438 4.56821 8.77875 6.54878 8.77875Z" fill="#FBFFFF" stroke="#FBFFFF"/>
</svg>
