<svg width="16" height="17" viewBox="0 0 16 17" fill="none" xmlns="http://www.w3.org/2000/svg">
<path d="M14.1108 11.8197H15.6386V13.3474H0.36084V11.8197H1.88862V6.47244C1.88862 4.85167 2.53247 3.29729 3.67852 2.15123C4.82458 1.00518 6.37896 0.361328 7.99973 0.361328C9.6205 0.361328 11.1749 1.00518 12.3209 2.15123C13.467 3.29729 14.1108 4.85167 14.1108 6.47244V11.8197ZM12.5831 11.8197V6.47244C12.5831 5.25686 12.1002 4.09107 11.2406 3.23153C10.3811 2.37199 9.21531 1.88911 7.99973 1.88911C6.78415 1.88911 5.61836 2.37199 4.75882 3.23153C3.89928 4.09107 3.4164 5.25686 3.4164 6.47244V11.8197H12.5831ZM5.70806 14.8752H10.2914V16.403H5.70806V14.8752Z" fill="#262338"/>
</svg>
