<svg width="14" height="14" viewBox="0 0 14 14" fill="none" xmlns="http://www.w3.org/2000/svg">
<path d="M6.375 1.125C9.27289 1.125 11.625 3.47711 11.625 6.375C11.625 9.27289 9.27289 11.625 6.375 11.625C3.47711 11.625 1.125 9.27289 1.125 6.375C1.125 3.47711 3.47711 1.125 6.375 1.125ZM6.375 11.125C8.99898 11.125 11.125 8.99898 11.125 6.375C11.125 3.75036 8.99895 1.625 6.375 1.625C3.75039 1.625 1.625 3.75039 1.625 6.375C1.625 8.99895 3.75036 11.125 6.375 11.125ZM11.3247 11.6782L11.6782 11.3247L12.9159 12.5619L12.5619 12.9159L11.3247 11.6782Z" fill="#262338" stroke="#FBFFFF" stroke-width="0.75"/>
</svg>
