<svg width="16" height="16" viewBox="0 0 16 16" fill="none" xmlns="http://www.w3.org/2000/svg">
<path d="M1.38478 11.8196C1.06186 11.2611 0.810842 10.6641 0.637695 10.0427C1.01453 9.85109 1.331 9.55892 1.55209 9.19857C1.77319 8.83822 1.89029 8.42373 1.89045 8.00096C1.89061 7.57819 1.77382 7.16361 1.55299 6.80309C1.33216 6.44258 1.01591 6.15018 0.639223 5.95823C0.984528 4.70965 1.642 3.56952 2.54971 2.64525C2.90422 2.87573 3.3156 3.00363 3.7383 3.0148C4.16101 3.02597 4.57856 2.91997 4.94475 2.70852C5.31094 2.49708 5.61149 2.18844 5.81314 1.81676C6.01479 1.44509 6.10967 1.02487 6.08728 0.602609C7.34167 0.278431 8.65794 0.278957 9.91207 0.604137C9.88988 1.02639 9.98495 1.44655 10.1867 1.81811C10.3886 2.18968 10.6892 2.49818 11.0555 2.70946C11.4217 2.92074 11.8393 3.02657 12.262 3.01524C12.6847 3.00391 13.096 2.87585 13.4504 2.64525C13.8927 3.09594 14.2853 3.60851 14.6153 4.18066C14.9461 4.75282 15.1936 5.34941 15.3624 5.95747C14.9856 6.14913 14.6691 6.4413 14.448 6.80165C14.2269 7.162 14.1098 7.57649 14.1097 7.99926C14.1095 8.42203 14.2263 8.83661 14.4471 9.19712C14.668 9.55764 14.9842 9.85004 15.3609 10.042C15.0156 11.2906 14.3581 12.4307 13.4504 13.355C13.0959 13.1245 12.6845 12.9966 12.2618 12.9854C11.8391 12.9742 11.4216 13.0802 11.0554 13.2917C10.6892 13.5031 10.3886 13.8118 10.187 14.1834C9.98533 14.5551 9.89045 14.9753 9.91283 15.3976C8.65845 15.7218 7.34217 15.7213 6.08804 15.3961C6.11023 14.9738 6.01517 14.5537 5.81336 14.1821C5.61156 13.8105 5.31089 13.502 4.94463 13.2908C4.57837 13.0795 4.16079 12.9736 3.73811 12.985C3.31543 12.9963 2.90412 13.1244 2.54971 13.355C2.09824 12.8943 1.70683 12.3784 1.38478 11.8196ZM5.70839 11.9693C6.52241 12.4388 7.13445 13.1923 7.42714 14.0852C7.80832 14.1211 8.19103 14.1219 8.57221 14.086C8.86509 13.1929 9.47742 12.4394 10.2917 11.97C11.1054 11.4992 12.0643 11.3455 12.9844 11.5384C13.206 11.2268 13.3969 10.8945 13.5558 10.5469C12.929 9.84676 12.5827 8.93985 12.5834 8.00011C12.5834 7.03761 12.9424 6.13851 13.5558 5.4533C13.3958 5.10585 13.204 4.77393 12.9829 4.46178C12.0634 4.65451 11.1051 4.5011 10.2917 4.03094C9.4777 3.56143 8.86566 2.80794 8.57297 1.91497C8.19179 1.87907 7.80908 1.8783 7.4279 1.91421C7.13503 2.8073 6.5227 3.56081 5.70839 4.03018C4.89468 4.50097 3.93577 4.65467 3.01568 4.46178C2.79459 4.77366 2.60328 5.10563 2.44429 5.4533C3.07112 6.15345 3.4174 7.06036 3.41672 8.00011C3.41672 8.96261 3.0577 9.8617 2.44429 10.5469C2.60431 10.8944 2.79609 11.2263 3.01721 11.5384C3.93672 11.3457 4.89501 11.4991 5.70839 11.9693ZM8.00006 10.2918C7.39227 10.2918 6.80937 10.0503 6.3796 9.62056C5.94983 9.19079 5.70839 8.60789 5.70839 8.00011C5.70839 7.39232 5.94983 6.80943 6.3796 6.37965C6.80937 5.94988 7.39227 5.70844 8.00006 5.70844C8.60784 5.70844 9.19074 5.94988 9.62051 6.37965C10.0503 6.80943 10.2917 7.39232 10.2917 8.00011C10.2917 8.60789 10.0503 9.19079 9.62051 9.62056C9.19074 10.0503 8.60784 10.2918 8.00006 10.2918ZM8.00006 8.764C8.20265 8.764 8.39695 8.68352 8.54021 8.54026C8.68346 8.397 8.76395 8.2027 8.76395 8.00011C8.76395 7.79751 8.68346 7.60321 8.54021 7.45996C8.39695 7.3167 8.20265 7.23622 8.00006 7.23622C7.79746 7.23622 7.60316 7.3167 7.45991 7.45996C7.31665 7.60321 7.23617 7.79751 7.23617 8.00011C7.23617 8.2027 7.31665 8.397 7.45991 8.54026C7.60316 8.68352 7.79746 8.764 8.00006 8.764Z" fill="#262338"/>
</svg>
