<svg width="16" height="16" viewBox="0 0 16 16" fill="none" xmlns="http://www.w3.org/2000/svg">
<path d="M8.00022 15.6389C3.78126 15.6389 0.361328 12.2189 0.361328 7.99997C0.361328 3.78101 3.78126 0.361084 8.00022 0.361084C12.2192 0.361084 15.6391 3.78101 15.6391 7.99997C15.6391 12.2189 12.2192 15.6389 8.00022 15.6389ZM8.00022 14.1111C9.62099 14.1111 11.1754 13.4672 12.3214 12.3212C13.4675 11.1751 14.1113 9.62074 14.1113 7.99997C14.1113 6.37921 13.4675 4.82482 12.3214 3.67876C11.1754 2.53271 9.62099 1.88886 8.00022 1.88886C6.37945 1.88886 4.82506 2.53271 3.67901 3.67876C2.53295 4.82482 1.88911 6.37921 1.88911 7.99997C1.88911 9.62074 2.53295 11.1751 3.67901 12.3212C4.82506 13.4672 6.37945 14.1111 8.00022 14.1111ZM7.23862 11.0555L3.99744 7.81435L5.07758 6.73421L7.23862 8.89525L11.5592 4.57393L12.6401 5.65407L7.23862 11.0555Z" fill="white"/>
</svg>
