<svg width="14" height="17" viewBox="0 0 14 17" fill="none" xmlns="http://www.w3.org/2000/svg">
<path d="M0.888672 16.6388C0.888672 15.0181 1.53252 13.4637 2.67857 12.3176C3.82463 11.1716 5.37901 10.5277 6.99978 10.5277C8.62055 10.5277 10.1749 11.1716 11.321 12.3176C12.467 13.4637 13.1109 15.0181 13.1109 16.6388H11.5831C11.5831 15.4233 11.1002 14.2575 10.2407 13.3979C9.38115 12.5384 8.21536 12.0555 6.99978 12.0555C5.78421 12.0555 4.61842 12.5384 3.75888 13.3979C2.89934 14.2575 2.41645 15.4233 2.41645 16.6388H0.888672ZM6.99978 9.76384C4.46749 9.76384 2.41645 7.71279 2.41645 5.1805C2.41645 2.64821 4.46749 0.597168 6.99978 0.597168C9.53207 0.597168 11.5831 2.64821 11.5831 5.1805C11.5831 7.71279 9.53207 9.76384 6.99978 9.76384ZM6.99978 8.23606C8.68798 8.23606 10.0553 6.8687 10.0553 5.1805C10.0553 3.49231 8.68798 2.12495 6.99978 2.12495C5.31159 2.12495 3.94423 3.49231 3.94423 5.1805C3.94423 6.8687 5.31159 8.23606 6.99978 8.23606Z" fill="#262338"/>
</svg>
