<?xml version="1.0" encoding="iso-8859-1"?>
<!-- Generator: Adobe Illustrator 19.0.0, SVG Export Plug-In . SVG Version: 6.00 Build 0)  -->
<svg version="1.1" id="Layer_1" xmlns="http://www.w3.org/2000/svg" xmlns:xlink="http://www.w3.org/1999/xlink" x="0px" y="0px"
	 viewBox="0 0 512 512" style="enable-background:new 0 0 512 512;" xml:space="preserve">
<g transform="translate(1 1)">
	<path style="fill:#CCCCCC;" d="M502.467,255c0,136.533-110.933,247.467-247.467,247.467S7.533,391.533,7.533,255
		S118.467,7.533,255,7.533S502.467,118.467,502.467,255"/>
	<path style="fill:#E2E3E5;" d="M476.867,255c0,136.533-98.987,247.467-221.867,247.467S33.133,391.533,33.133,255
		S132.12,7.533,255,7.533S476.867,118.467,476.867,255"/>
	<path style="fill:#F0F0F0;" d="M458.947,394.947c-5.12-54.613-51.2-97.28-107.52-97.28H301.08c-6.827,0-11.947-5.12-11.947-11.947
		v-5.12c0-5.12,3.413-9.387,7.68-11.093c49.493-18.773,83.627-99.84,76.8-157.013C366.787,57.88,323.267,14.36,268.653,8.387
		c-4.267-0.853-8.533-0.853-12.8-0.853l0,0c-65.707,0-119.467,53.76-119.467,119.467c0,51.2,32.427,126.293,77.653,142.507
		c4.267,1.707,7.68,5.973,7.68,11.093v5.12c0,6.827-5.12,11.947-11.947,11.947h-50.347c-56.32,0-102.4,42.667-107.52,97.28
		C95.427,459.8,170.52,502.467,255,502.467S414.573,459.8,458.947,394.947"/>
	<g>
		<polygon style="fill:#E0E0E0;" points="161.133,365.933 195.267,365.933 195.267,297.667 161.133,297.667 		"/>
		<polygon style="fill:#E0E0E0;" points="314.733,365.933 348.867,365.933 348.867,297.667 314.733,297.667 		"/>
		<path style="fill:#E0E0E0;" d="M127,408.6v58.027c37.547,23.04,81.067,35.84,128,35.84s90.453-12.8,128-35.84V408.6v-42.667H127
			V408.6z"/>
		<path style="fill:#E0E0E0;" d="M293.4,63.853c31.573,8.533,61.44,28.16,81.067,53.76c0-1.707,0-3.413-0.853-5.973
			c-6.827-53.76-50.347-97.28-104.96-103.253c-4.267-0.853-8.533-0.853-12.8-0.853l0,0c-58.88,0-108.373,42.667-117.76,98.987l0,0
			c1.707,2.56,52.053-20.48,75.947-10.24c6.827,3.413,15.36,5.12,23.893,5.12C262.68,101.4,284.867,86.04,293.4,63.853"/>
	</g>
	<path style="fill:#FFFFFF;" d="M33.133,255C33.133,118.467,132.12,7.533,255,7.533C118.467,7.533,7.533,118.467,7.533,255
		S118.467,502.467,255,502.467C132.12,502.467,33.133,391.533,33.133,255"/>
	<g>
		<path style="fill:#B6B6B6;" d="M255,511C114.2,511-1,395.8-1,255S114.2-1,255-1s256,115.2,256,256S395.8,511,255,511z M255,16.067
			C123.587,16.067,16.067,123.587,16.067,255S123.587,493.933,255,493.933S493.933,386.413,493.933,255S386.413,16.067,255,16.067z"
			/>
		<path style="fill:#B6B6B6;" d="M255,511c-84.48,0-163.84-41.813-211.627-111.787c-0.853-1.707-1.707-3.413-1.707-5.973
			c5.973-59.733,56.32-104.96,116.053-104.96h50.347c1.707,0,3.413-1.707,3.413-3.413V280.6c0-1.707-0.853-2.56-1.707-2.56
			C162.84,260.12,127,183.32,127,127c0-34.133,13.653-66.56,37.547-90.453S220.867-1,255-1l0,0c5.12,0,9.387,0,14.507,0.853
			c58.027,6.827,104.96,53.76,112.64,111.787c6.827,59.733-27.307,145.92-81.92,166.4c-0.853,0-2.56,1.707-2.56,3.413v5.12
			c0,1.707,1.707,3.413,3.413,3.413h50.347c59.733,0,110.08,45.227,116.053,104.96c0,1.707,0,4.267-1.707,5.973
			C418.84,469.187,339.48,511,255,511z M59.587,392.387c45.227,64,117.76,101.547,195.413,101.547s150.187-37.547,195.413-101.547
			c-6.827-49.493-48.64-86.187-98.987-86.187H301.08c-11.093,0-20.48-9.387-20.48-20.48v-5.12c0-8.533,5.12-16.213,13.653-18.773
			c46.08-17.067,77.653-95.573,70.827-148.48C359.107,63,318.147,22.04,267.8,16.92c-4.267-0.853-7.68-0.853-11.947-0.853l0,0
			c-29.867,0-58.027,11.093-78.507,32.427c-21.333,21.333-33.28,48.64-33.28,78.507c0,49.493,31.573,119.467,72.533,134.827
			c7.68,2.56,12.8,10.24,12.8,18.773v5.12c0,11.093-9.387,20.48-20.48,20.48h-50.347C108.227,306.2,66.413,342.893,59.587,392.387z"
			/>
		<path style="fill:#B6B6B6;" d="M195.267,374.467h-34.133c-5.12,0-8.533-3.413-8.533-8.533v-68.267c0-5.12,3.413-8.533,8.533-8.533
			h34.133c5.12,0,8.533,3.413,8.533,8.533v68.267C203.8,371.053,200.387,374.467,195.267,374.467z M169.667,357.4h17.067v-51.2
			h-17.067V357.4z"/>
		<path style="fill:#B6B6B6;" d="M348.867,374.467h-34.133c-5.12,0-8.533-3.413-8.533-8.533v-68.267c0-5.12,3.413-8.533,8.533-8.533
			h34.133c5.12,0,8.533,3.413,8.533,8.533v68.267C357.4,371.053,353.987,374.467,348.867,374.467z M323.267,357.4h17.067v-51.2
			h-17.067V357.4z"/>
		<path style="fill:#B6B6B6;" d="M373.613,126.147c-2.56,0-5.12-0.853-6.827-3.413c-16.213-22.187-40.96-39.253-69.12-48.64
			c-11.947,22.187-34.133,35.84-59.733,35.84c-9.387,0-18.773-1.707-27.307-5.973c-14.507-6.827-45.227,3.413-59.733,7.68
			c-11.093,3.413-16.213,5.12-20.48-0.853c-1.707-1.707-1.707-4.267-1.707-6.827C139.8,43.373,192.707-1,255-1l0,0
			c5.12,0,10.24,0,14.507,0.853c58.027,6.827,104.96,53.76,112.64,111.787c0,1.707,0,2.56,0,4.267v1.707
			c0,3.413-1.707,7.68-5.12,8.533C376.173,126.147,375.32,126.147,373.613,126.147z M255,16.067
			c-49.493,0-92.16,32.427-106.667,78.507c18.773-5.973,48.64-14.507,68.267-5.973c6.827,2.56,14.507,4.267,21.333,4.267
			c21.333,0,39.253-12.8,47.787-32.427c1.707-4.267,5.973-5.973,10.24-5.12c23.893,6.827,46.08,18.773,64,34.133
			C346.307,50.2,310.467,21.187,267.8,16.067C263.533,16.067,260.12,16.067,255,16.067C255.853,16.067,255.853,16.067,255,16.067z"
			/>
		<path style="fill:#B6B6B6;" d="M255,511c-46.933,0-92.16-12.8-132.267-36.693c-2.56-1.707-4.267-4.267-4.267-7.68V365.933
			c0-5.12,3.413-8.533,8.533-8.533h256c5.12,0,8.533,3.413,8.533,8.533v100.693c0,2.56-1.707,5.973-4.267,7.68
			C347.16,498.2,301.933,511,255,511z M135.533,462.36c35.84,21.333,77.653,31.573,119.467,31.573s83.627-11.093,119.467-31.573
			v-87.893H135.533V462.36z"/>
	</g>
</g>
<g>
</g>
<g>
</g>
<g>
</g>
<g>
</g>
<g>
</g>
<g>
</g>
<g>
</g>
<g>
</g>
<g>
</g>
<g>
</g>
<g>
</g>
<g>
</g>
<g>
</g>
<g>
</g>
<g>
</g>
</svg>
