<svg width="14" height="14" viewBox="0 0 14 14" fill="none" xmlns="http://www.w3.org/2000/svg">
<path d="M6.36296 9.04632H5.27152V8.77317H8.27268C8.4897 8.77317 8.69784 8.68696 8.85129 8.5335C9.00475 8.38004 9.09097 8.1719 9.09097 7.95488C9.09097 7.73786 9.00475 7.52972 8.85129 7.37626C8.69784 7.2228 8.4897 7.13659 8.27268 7.13659H5.72638C5.43691 7.13659 5.1593 7.0216 4.95462 6.81692C4.74994 6.61224 4.63495 6.33462 4.63495 6.04516C4.63495 5.75569 4.74994 5.47808 4.95462 5.2734C5.1593 5.06871 5.43691 4.95372 5.72638 4.95372H6.36296H6.86296V4.45372V3.68057H7.1361V4.45372V4.95372H7.6361H8.72754V5.22687H5.72638C5.50936 5.22687 5.30122 5.31308 5.14777 5.46654C4.9943 5.62 4.90809 5.82814 4.90809 6.04516C4.90809 6.26218 4.9943 6.47031 5.14777 6.62377C5.30122 6.77723 5.50936 6.86344 5.72638 6.86344H8.27268C8.56214 6.86344 8.83976 6.97843 9.04444 7.18312C9.24912 7.3878 9.36411 7.66541 9.36411 7.95488C9.36411 8.24435 9.24912 8.52196 9.04444 8.72664C8.83976 8.93132 8.56214 9.04632 8.27268 9.04632H7.6361H7.1361V9.54632V10.3195H6.86296V9.54632V9.04632H6.36296ZM6.99953 12.8658C3.75987 12.8658 1.13379 10.2397 1.13379 7.00002C1.13379 3.76036 3.75987 1.13428 6.99953 1.13428C10.2392 1.13428 12.8653 3.76036 12.8653 7.00002C12.8653 10.2397 10.2392 12.8658 6.99953 12.8658ZM6.99953 12.5926C8.48278 12.5926 9.90528 12.0034 10.9541 10.9546C12.0029 9.90576 12.5921 8.48327 12.5921 7.00002C12.5921 5.51677 12.0029 4.09427 10.9541 3.04546C9.90528 1.99664 8.48278 1.40743 6.99953 1.40743C5.51628 1.40743 4.09378 1.99664 3.04497 3.04546C1.99616 4.09427 1.40694 5.51677 1.40694 7.00002C1.40694 8.48327 1.99616 9.90576 3.04497 10.9546C4.09378 12.0034 5.51628 12.5926 6.99953 12.5926Z" fill="#262338" stroke="#262338"/>
</svg>
