<svg width="14" height="14" viewBox="0 0 14 14" fill="none" xmlns="http://www.w3.org/2000/svg">
<path d="M11.1608 11.817C10.0057 12.8179 8.52795 13.3679 6.99953 13.3658C3.48373 13.3658 0.633789 10.5158 0.633789 7.00002C0.633789 5.844 0.942077 4.75976 1.48041 3.82554L1.76823 4.34342M11.1608 11.817L10.7765 11.125C10.6509 11.2399 10.5205 11.3488 10.3858 11.4513M11.1608 11.817L10.8334 11.4391C10.7315 11.5274 10.6269 11.6119 10.5197 11.6925M11.1608 11.817L10.7237 12.0598L10.5197 11.6925M10.3858 11.4513L10.1402 11.0093C9.49288 11.5164 8.73013 11.8609 7.91622 12.0099C6.93414 12.1896 5.9209 12.0766 5.00248 11.6851C4.08406 11.2936 3.30098 10.6408 2.75061 9.80779C2.29256 9.11453 2.01252 8.32195 1.9315 7.50002H1.90694V7.00086C1.90694 7.00058 1.90694 7.0003 1.90694 7.00002H3.24463L2.96676 6.50002M10.3858 11.4513C9.68855 11.9818 8.87386 12.3429 8.00623 12.5017C6.92773 12.699 5.815 12.575 4.80641 12.1451C3.79782 11.7151 2.93785 10.9982 2.33345 10.0834C1.72904 9.16865 1.40685 8.0964 1.40694 6.99998L1.40698 6.50002H1.90694H2.96676M10.3858 11.4513L10.5197 11.6925M2.96676 6.50002H3.53878L2.05868 3.83676C1.9538 4.00027 1.8568 4.16933 1.76823 4.34342M2.96676 6.50002L1.76823 4.34342M1.76823 4.34342C1.36263 5.14065 1.13379 6.04328 1.13379 7.00002C1.13379 10.2397 3.75987 12.8658 6.99953 12.8658H7.00023C8.27329 12.8675 9.50821 12.4535 10.5197 11.6925M12.8653 7.00002C12.8653 7.95677 12.6364 8.8594 12.2308 9.65663L11.0323 7.50002H12.0921H12.5921L12.5921 7.00007C12.5922 5.90365 12.27 4.8314 11.6656 3.91663C11.0612 3.00186 10.2012 2.28492 9.19265 1.85497C8.18406 1.42501 7.07133 1.30101 5.99283 1.49836C5.1252 1.65714 4.31051 2.01826 3.61328 2.54871L3.47934 2.30756C4.49085 1.54658 5.72576 1.13251 6.99883 1.13428H6.99953C10.2392 1.13428 12.8653 3.76037 12.8653 7.00002Z" fill="#262338" stroke="#262338"/>
</svg>
