<svg width="14" height="13" viewBox="0 0 14 13" fill="none" xmlns="http://www.w3.org/2000/svg">
<path d="M3.46973 9.95594H3.29681L3.16084 10.0628L1.13379 11.6553V0.907326C1.13379 0.83208 1.19512 0.770752 1.27036 0.770752H12.7287C12.8039 0.770752 12.8653 0.83208 12.8653 0.907326V9.81936C12.8653 9.89461 12.8039 9.95594 12.7287 9.95594H3.46973ZM12.5921 1.5439V1.0439H12.0921H1.90694H1.40694V1.5439V10.0644V11.0931L2.21582 10.4576L3.20213 9.68279H12.0921H12.5921V9.18279V1.5439ZM7.1361 3.31705V7.40964H6.86296V3.31705H7.1361ZM9.6824 4.5902V7.40964H9.40925V4.5902H9.6824ZM4.58981 5.86334V7.40964H4.31666V5.86334H4.58981Z" fill="#262338" stroke="#262338"/>
</svg>
