<svg width="12" height="11" viewBox="0 0 12 11" fill="none" xmlns="http://www.w3.org/2000/svg">
<path style="fill:#EB44A5;" d="M8.29149 0.916748C9.83862 0.916748 11.0924 2.1899 11.0924 3.9723C11.0924 7.53712 7.27297 9.57415 5.99982 10.338C4.72667 9.57415 0.907227 7.53712 0.907227 3.9723C0.907227 2.1899 2.18037 0.916748 3.70815 0.916748C4.65538 0.916748 5.49056 1.42601 5.99982 1.93527C6.50908 1.42601 7.34426 0.916748 8.29149 0.916748ZM6.47547 8.86323C6.92413 8.58008 7.32899 8.29846 7.70788 7.99698C9.22598 6.79003 10.0739 5.47105 10.0739 3.9723C10.0739 2.77045 9.29116 1.93527 8.29149 1.93527C7.74352 1.93527 7.15075 2.22554 6.71991 2.65536L5.99982 3.37545L5.27973 2.65536C4.84889 2.22554 4.25612 1.93527 3.70815 1.93527C2.72019 1.93527 1.92575 2.7786 1.92575 3.9723C1.92575 5.47156 2.77417 6.79003 4.29125 7.99698C4.67065 8.29846 5.07551 8.58008 5.52417 8.86272C5.67644 8.95897 5.82718 9.05115 5.99982 9.15402C6.17246 9.05115 6.3232 8.95897 6.47547 8.86323Z" fill="#262338"/>
</svg>
