<svg width="20" height="19" viewBox="0 0 20 19" fill="none" xmlns="http://www.w3.org/2000/svg">
<path d="M4.98471 13.0765C5.65047 13.3404 6.20242 13.8297 6.54425 14.459C6.88608 15.0883 6.99609 15.8177 6.85507 16.5198C6.71406 17.222 6.33097 17.8523 5.77267 18.3008C5.21437 18.7493 4.51629 18.9876 3.80027 18.974C3.08424 18.9604 2.39572 18.6958 1.85486 18.2264C1.314 17.757 0.955142 17.1125 0.840903 16.4055C0.726664 15.6986 0.864299 14.9739 1.22979 14.358C1.59528 13.7422 2.16543 13.2742 2.84073 13.0358V6.57835C2.16088 6.33807 1.58786 5.86518 1.22296 5.24327C0.858055 4.62135 0.724771 3.89045 0.846662 3.17977C0.968554 2.46908 1.33777 1.82437 1.88905 1.35959C2.44034 0.894808 3.13818 0.639888 3.85925 0.639888C4.58031 0.639888 5.27816 0.894808 5.82944 1.35959C6.38072 1.82437 6.74994 2.46908 6.87183 3.17977C6.99372 3.89045 6.86044 4.62135 6.49554 5.24327C6.13064 5.86518 5.55762 6.33807 4.87777 6.57835V9.80705C5.72925 9.16742 6.78647 8.78853 7.93332 8.78853H12.0074C12.6777 8.78856 13.3294 8.56825 13.8622 8.16152C14.395 7.75479 14.7793 7.1842 14.956 6.53761C14.287 6.27269 13.7329 5.78027 13.3913 5.14702C13.0497 4.51376 12.9424 3.78029 13.0883 3.07572C13.2343 2.37115 13.6241 1.74065 14.1892 1.29523C14.7543 0.849812 15.4584 0.618025 16.1776 0.640676C16.8968 0.663327 17.5849 0.938965 18.1208 1.41906C18.6568 1.89916 19.0061 2.55294 19.1075 3.2653C19.2088 3.97766 19.0556 4.70293 18.6748 5.31342C18.2939 5.92392 17.71 6.3805 17.0256 6.60279C16.8205 7.78497 16.2046 8.85678 15.2866 9.62931C14.3685 10.4018 13.2072 10.8255 12.0074 10.8256H7.93332C7.26302 10.8255 6.6113 11.0459 6.07851 11.4526C5.54571 11.8593 5.16139 12.4299 4.98471 13.0765ZM3.85925 14.8996C3.58912 14.8996 3.33006 15.007 3.13905 15.198C2.94804 15.389 2.84073 15.648 2.84073 15.9182C2.84073 16.1883 2.94804 16.4474 3.13905 16.6384C3.33006 16.8294 3.58912 16.9367 3.85925 16.9367C4.12938 16.9367 4.38844 16.8294 4.57945 16.6384C4.77046 16.4474 4.87777 16.1883 4.87777 15.9182C4.87777 15.648 4.77046 15.389 4.57945 15.198C4.38844 15.007 4.12938 14.8996 3.85925 14.8996ZM3.85925 2.67742C3.58912 2.67742 3.33006 2.78473 3.13905 2.97574C2.94804 3.16675 2.84073 3.42581 2.84073 3.69594C2.84073 3.96607 2.94804 4.22513 3.13905 4.41614C3.33006 4.60715 3.58912 4.71446 3.85925 4.71446C4.12938 4.71446 4.38844 4.60715 4.57945 4.41614C4.77046 4.22513 4.87777 3.96607 4.87777 3.69594C4.87777 3.42581 4.77046 3.16675 4.57945 2.97574C4.38844 2.78473 4.12938 2.67742 3.85925 2.67742ZM16.0815 2.67742C15.8113 2.67742 15.5523 2.78473 15.3613 2.97574C15.1703 3.16675 15.063 3.42581 15.063 3.69594C15.063 3.96607 15.1703 4.22513 15.3613 4.41614C15.5523 4.60715 15.8113 4.71446 16.0815 4.71446C16.3516 4.71446 16.6107 4.60715 16.8017 4.41614C16.9927 4.22513 17.1 3.96607 17.1 3.69594C17.1 3.42581 16.9927 3.16675 16.8017 2.97574C16.6107 2.78473 16.3516 2.67742 16.0815 2.67742Z" fill="#C89002"/>
</svg>
