<svg width="14" height="14" viewBox="0 0 14 14" fill="none" xmlns="http://www.w3.org/2000/svg">
<path d="M4.36654 11.9358L4.36599 11.9356L4.11386 11.8004L2.41901 12.1771L1.65196 12.3476L1.82244 11.5805L2.19921 9.88537L2.06458 9.63347L4.36654 11.9358ZM4.36654 11.9358C5.17655 12.3687 6.08112 12.5944 6.99954 12.5926M4.36654 11.9358L6.99954 12.5926M6.99954 12.5926C8.10565 12.5926 9.18692 12.2646 10.1066 11.6501C11.0263 11.0356 11.7431 10.1621 12.1664 9.14021C12.5897 8.1183 12.7005 6.99382 12.4847 5.90896C12.2689 4.8241 11.7362 3.8276 10.9541 3.04546C10.172 2.26332 9.17545 1.73068 8.0906 1.51489C7.00574 1.29909 5.88126 1.40985 4.85934 1.83314C3.83743 2.25643 2.96399 2.97324 2.34947 3.89294C1.73494 4.81264 1.40694 5.89391 1.40694 7.00002C1.40694 7.93111 1.63396 8.82946 2.06435 9.63304L6.99954 12.5926ZM4.23765 12.1762L4.07427 12.0889L3.89342 12.1291L1.29238 12.7072L1.8705 10.1061L1.91069 9.92529L1.82335 9.76191C1.36924 8.91251 1.13235 7.96394 1.1338 7.00077V7.00002C1.1338 3.76036 3.75988 1.13428 6.99954 1.13428C10.2392 1.13428 12.8653 3.76036 12.8653 7.00002C12.8653 10.2397 10.2392 12.8658 6.99954 12.8658L6.99878 12.8658C6.03561 12.8672 5.08705 12.6303 4.23765 12.1762Z" fill="#1C2436" stroke="#262338"/>
</svg>
