<svg width="22" height="21" viewBox="0 0 22 21" fill="none" xmlns="http://www.w3.org/2000/svg">
<path d="M10.9996 20.9924C5.37436 20.9924 0.814453 16.4325 0.814453 10.8073C0.814453 5.18198 5.37436 0.62207 10.9996 0.62207C16.6249 0.62207 21.1848 5.18198 21.1848 10.8073C21.1848 16.4325 16.6249 20.9924 10.9996 20.9924ZM10.9996 18.9554C13.1607 18.9554 15.2332 18.0969 16.7613 16.5689C18.2893 15.0408 19.1478 12.9683 19.1478 10.8073C19.1478 8.64623 18.2893 6.57372 16.7613 5.04565C15.2332 3.51757 13.1607 2.65911 10.9996 2.65911C8.83862 2.65911 6.7661 3.51757 5.23803 5.04565C3.70995 6.57372 2.85149 8.64623 2.85149 10.8073C2.85149 12.9683 3.70995 15.0408 5.23803 16.5689C6.7661 18.0969 8.83862 18.9554 10.9996 18.9554ZM7.43482 12.8443H13.0367C13.1717 12.8443 13.3013 12.7906 13.3968 12.6951C13.4923 12.5996 13.5459 12.4701 13.5459 12.335C13.5459 12.2 13.4923 12.0704 13.3968 11.9749C13.3013 11.8794 13.1717 11.8258 13.0367 11.8258H8.9626C8.28728 11.8258 7.63962 11.5575 7.1621 11.08C6.68458 10.6025 6.41631 9.9548 6.41631 9.27948C6.41631 8.60416 6.68458 7.9565 7.1621 7.47898C7.63962 7.00145 8.28728 6.73318 8.9626 6.73318H9.98112V4.69615H12.0182V6.73318H14.5645V8.77022H8.9626C8.82754 8.77022 8.69801 8.82387 8.6025 8.91938C8.507 9.01488 8.45334 9.14441 8.45334 9.27948C8.45334 9.41454 8.507 9.54408 8.6025 9.63958C8.69801 9.73508 8.82754 9.78874 8.9626 9.78874H13.0367C13.712 9.78874 14.3597 10.057 14.8372 10.5345C15.3147 11.0121 15.583 11.6597 15.583 12.335C15.583 13.0104 15.3147 13.658 14.8372 14.1355C14.3597 14.6131 13.712 14.8813 13.0367 14.8813H12.0182V16.9184H9.98112V14.8813H7.43482V12.8443Z" fill="#FF9900"/>
</svg>
