<svg width="15" height="14" viewBox="0 0 15 14" fill="none" xmlns="http://www.w3.org/2000/svg">
<path d="M7.50043 0.315918C11.192 0.315918 14.1845 3.30836 14.1845 6.99995C14.1845 10.6915 11.192 13.684 7.50043 13.684C3.80885 13.684 0.816406 10.6915 0.816406 6.99995C0.816406 3.30836 3.80885 0.315918 7.50043 0.315918ZM7.50043 1.65272C6.08226 1.65272 4.72218 2.21609 3.71938 3.21889C2.71658 4.22169 2.15321 5.58177 2.15321 6.99995C2.15321 8.41812 2.71658 9.7782 3.71938 10.781C4.72218 11.7838 6.08226 12.3472 7.50043 12.3472C8.91861 12.3472 10.2787 11.7838 11.2815 10.781C12.2843 9.7782 12.8477 8.41812 12.8477 6.99995C12.8477 5.58177 12.2843 4.22169 11.2815 3.21889C10.2787 2.21609 8.91861 1.65272 7.50043 1.65272ZM7.50043 3.65793C8.20399 3.6582 8.88951 3.88049 9.45934 4.29314C10.0292 4.70579 10.4542 5.28775 10.674 5.9561C10.8937 6.62445 10.8969 7.34511 10.6832 8.0154C10.4694 8.68569 10.0496 9.27142 9.48343 9.68914C8.91731 10.1069 8.2338 10.3353 7.53028 10.3418C6.82676 10.3484 6.13911 10.1327 5.56531 9.72561C4.99151 9.3185 4.56083 8.74069 4.33461 8.0745C4.1084 7.40831 4.0982 6.68772 4.30547 6.01539C4.46182 6.36477 4.73343 6.64985 5.07484 6.82293C5.41625 6.996 5.80674 7.04657 6.18097 6.96616C6.5552 6.88576 6.89047 6.67926 7.13066 6.38123C7.37084 6.08319 7.50139 5.71171 7.50043 5.32894C7.50052 5.00708 7.40766 4.69205 7.233 4.4217C7.05834 4.15135 6.80932 3.9372 6.51588 3.80498C6.82735 3.7094 7.15754 3.65793 7.50043 3.65793Z" fill="#A0A3BD"/>
</svg>
