<svg width="16" height="16" viewBox="0 0 16 16" fill="none" xmlns="http://www.w3.org/2000/svg">
<path d="M3.77276 11.9491H3.59984L3.46387 12.0559L0.836914 14.1198V0.880609C0.836914 0.73103 0.958569 0.609375 1.10815 0.609375H14.9904C15.1399 0.609375 15.2616 0.731031 15.2616 0.880609V11.6779C15.2616 11.8275 15.1399 11.9491 14.9904 11.9491H3.77276ZM14.7191 1.65184V1.15184H14.2191H1.87938H1.37938V1.65184V11.9748V13.0034L2.18826 12.368L3.41198 11.4067H14.2191H14.7191V10.9067V1.65184ZM8.32049 3.69431V8.86419H7.77802V3.69431H8.32049ZM11.4054 5.23678V8.86419H10.863V5.23678H11.4054ZM5.23555 6.77925V8.86419H4.69308V6.77925H5.23555Z" fill="#FBFFFF" stroke="#FBFFFF"/>
</svg>
