<svg width="14" height="14" viewBox="0 0 14 14" fill="none" xmlns="http://www.w3.org/2000/svg">
<path d="M4.41362 1.44502L4.41362 1.44502C5.15783 1.41204 5.42407 1.40761 7.00051 1.40761C8.61743 1.40761 8.87331 1.41138 9.58879 1.44508C10.1222 1.46968 10.5124 1.54295 10.8866 1.68749C11.2132 1.80829 11.5087 2.00059 11.7514 2.2503C11.9998 2.4931 12.1914 2.78788 12.3123 3.1135C12.4572 3.48714 12.5304 3.87892 12.5556 4.41181L12.5557 4.41331C12.5887 5.15752 12.5931 5.42377 12.5931 7.0002C12.5931 8.61712 12.5893 8.873 12.5556 9.58848C12.5309 10.1234 12.4564 10.5144 12.3114 10.8906L12.3113 10.8909C12.1807 11.2292 12.0145 11.4876 11.7502 11.7518C11.488 12.0141 11.2283 12.1793 10.891 12.3109L10.8898 12.3114C10.5155 12.4564 10.1239 12.53 9.58889 12.5553L9.5874 12.5554C8.84318 12.5884 8.57694 12.5928 7.00051 12.5928C5.38358 12.5928 5.1277 12.589 4.41222 12.5553C3.87726 12.5306 3.48679 12.456 3.10985 12.3103L4.41362 1.44502ZM4.41362 1.44502L4.41218 1.44509C3.87613 1.47038 3.48485 1.54398 3.11024 1.68976C2.77203 1.82074 2.51411 1.98584 2.25286 2.2471M4.41362 1.44502L2.25286 2.2471M2.25286 2.2471C2.00217 2.49029 1.80911 2.78651 1.68784 3.11404C1.54329 3.48822 1.46999 3.87773 1.44539 4.41192C1.41169 5.1274 1.40791 5.38328 1.40791 7.0002C1.40791 8.57664 1.41235 8.84288 1.44532 9.58709L1.44539 9.58856C1.4707 10.1241 1.54431 10.5159 1.68941 10.8898L1.68984 10.8909C1.82211 11.2293 1.98662 11.4877 2.24886 11.7499L2.24939 11.7505C2.51332 12.0136 2.77149 12.1797 3.1096 12.3102L2.25286 2.2471ZM10.9905 1.4353L10.9889 1.43469C10.6399 1.29902 10.2326 1.20176 9.60104 1.17211L10.9905 1.4353ZM10.9905 1.4353C11.3484 1.57303 11.6424 1.75463 11.9448 2.0565L11.9448 2.05651M10.9905 1.4353L11.9448 2.05651M11.9448 2.05651L11.9475 2.05919M11.9448 2.05651L11.9475 2.05919M11.9475 2.05919C12.2194 2.32648 12.4298 2.64981 12.5641 3.00667L12.564 3.00668M11.9475 2.05919L12.564 3.00668M12.564 3.00668L12.5659 3.0114M12.564 3.00668L12.5659 3.0114M12.5659 3.0114C12.7011 3.36017 12.7989 3.76813 12.8286 4.399C12.858 5.06638 12.8662 5.27434 12.8662 7.0002C12.8662 8.72796 12.8599 8.93425 12.8286 9.60071C12.799 10.2318 12.7012 10.6395 12.5658 10.9892L12.5657 10.9892M12.5659 3.0114L12.5657 10.9892M12.5657 10.9892L12.5639 10.9943M12.5657 10.9892L12.5639 10.9943M12.5639 10.9943C12.4301 11.351 12.2199 11.6741 11.948 11.9408L11.9479 11.9408M12.5639 10.9943L11.9479 11.9408M11.9479 11.9408L11.9416 11.9471M11.9479 11.9408L11.9416 11.9471M11.9416 11.9471C11.6742 12.219 11.3508 12.4294 10.9939 12.5638L10.9939 12.5638M11.9416 11.9471L10.9939 12.5638M10.9939 12.5638L10.9893 12.5656M10.9939 12.5638L10.9893 12.5656M10.9893 12.5656C10.6405 12.7008 10.2326 12.7986 9.6017 12.8283M10.9893 12.5656L9.6017 12.8283M3.01147 12.5654L3.01146 12.5655C3.36125 12.7009 3.76887 12.7987 4.39997 12.8283L3.01147 12.5654ZM3.01147 12.5654L3.0066 12.5636M3.01147 12.5654L3.0066 12.5636M3.0066 12.5636C2.64984 12.4297 2.32669 12.2195 2.05978 11.9475L2.05983 11.9475M3.0066 12.5636L2.05983 11.9475M2.05983 11.9475L2.0534 11.9412M2.05983 11.9475L2.0534 11.9412M2.0534 11.9412C1.7815 11.6739 1.57114 11.3507 1.43699 10.9938L1.43702 10.9938M2.0534 11.9412L1.43702 10.9938M1.43702 10.9938L1.4349 10.9884M1.43702 10.9938L1.4349 10.9884M1.4349 10.9884C1.29942 10.6404 1.20214 10.2328 1.17244 9.60141C1.14302 8.93402 1.13477 8.72607 1.13477 7.0002C1.13477 5.27242 1.14115 5.06615 1.17241 4.39967C1.20206 3.7675 1.29931 3.36086 1.435 3.01179L1.43503 3.01181M1.4349 10.9884L1.43503 3.01181M1.43503 3.01181L1.43718 3.00608M1.43503 3.01181L1.43718 3.00608M1.43718 3.00608C1.57083 2.64939 1.78104 2.32632 2.05301 2.05963L2.05307 2.05969M1.43718 3.00608L2.05307 2.05969M2.05307 2.05969L2.05967 2.05298M2.05307 2.05969L2.05967 2.05298M2.05967 2.05298C2.32672 1.78106 2.64995 1.57074 3.00675 1.43674L3.00676 1.43677M2.05967 2.05298L3.00676 1.43677M3.00676 1.43677L3.0121 1.43469M3.00676 1.43677L3.0121 1.43469M3.0121 1.43469C3.36104 1.29905 3.76751 1.20183 4.39928 1.17214C5.06668 1.14271 5.27462 1.13446 7.00051 1.13446C8.72826 1.13446 8.93456 1.14084 9.60102 1.1721L3.0121 1.43469ZM9.6017 12.8283C8.93433 12.8577 8.72636 12.8659 7.00051 12.8659C5.27275 12.8659 5.06646 12.8596 4.4 12.8283L9.6017 12.8283ZM7.00051 4.59048C6.36141 4.59048 5.74849 4.84436 5.29658 5.29627C4.84466 5.74818 4.59078 6.3611 4.59078 7.0002C4.59078 7.6393 4.84466 8.25222 5.29658 8.70413C5.74849 9.15604 6.36141 9.40992 7.00051 9.40992C7.6396 9.40992 8.25253 9.15604 8.70444 8.70413C9.15635 8.25222 9.41023 7.6393 9.41023 7.0002C9.41023 6.3611 9.15635 5.74818 8.70444 5.29627C8.25253 4.84436 7.6396 4.59048 7.00051 4.59048ZM7.00051 4.31733C7.71205 4.31733 8.39445 4.59999 8.89758 5.10313C9.40072 5.60626 9.68338 6.28866 9.68338 7.0002C9.68338 7.71174 9.40072 8.39414 8.89758 8.89728C8.39445 9.40041 7.71205 9.68307 7.00051 9.68307C6.28896 9.68307 5.60657 9.40041 5.10343 8.89728C4.60029 8.39414 4.31764 7.71174 4.31764 7.0002C4.31764 6.28866 4.60029 5.60626 5.10343 5.10313C5.60657 4.59999 6.28896 4.31733 7.00051 4.31733ZM10.6382 3.65819C10.6382 3.73662 10.6071 3.81183 10.5516 3.86729L10.9052 4.22084L10.5516 3.86729C10.4962 3.92275 10.4209 3.9539 10.3425 3.9539C10.2641 3.9539 10.1889 3.92275 10.1334 3.86729L9.77986 4.22084L10.1334 3.86729C10.078 3.81183 10.0468 3.73662 10.0468 3.65819C10.0468 3.57976 10.078 3.50454 10.1334 3.44908C10.1889 3.39363 10.2641 3.36247 10.3425 3.36247C10.4209 3.36247 10.4962 3.39363 10.5516 3.44908C10.6071 3.50454 10.6382 3.57976 10.6382 3.65819Z" fill="#262338" stroke="#149BFC"/>
</svg>
