<svg width="16" height="14" viewBox="0 0 16 14" fill="none" xmlns="http://www.w3.org/2000/svg">
<path d="M0.90549 0.125H14.6555C14.8581 0.125 15.0524 0.205481 15.1956 0.348738C15.3389 0.491995 15.4194 0.686293 15.4194 0.888889V13.1111C15.4194 13.3137 15.3389 13.508 15.1956 13.6513C15.0524 13.7945 14.8581 13.875 14.6555 13.875H0.90549C0.702895 13.875 0.508596 13.7945 0.365339 13.6513C0.222082 13.508 0.141602 13.3137 0.141602 13.1111V0.888889C0.141602 0.686293 0.222082 0.491995 0.365339 0.348738C0.508596 0.205481 0.702895 0.125 0.90549 0.125ZM13.8916 3.36236L7.83549 8.78597L1.66938 3.34556V12.3472H13.8916V3.36236ZM2.05973 1.65278L7.82709 6.74181L13.5112 1.65278H2.05973Z" fill="white"/>
</svg>
