<svg width="16" height="16" viewBox="0 0 16 16" fill="none" xmlns="http://www.w3.org/2000/svg">
<path d="M4.40307 14.7405L0.361337 15.6389L1.25967 11.5971C0.668063 10.4905 0.359448 9.25477 0.361337 7.99997C0.361337 3.78102 3.78127 0.361084 8.00023 0.361084C12.2192 0.361084 15.6391 3.78102 15.6391 7.99997C15.6391 12.2189 12.2192 15.6389 8.00023 15.6389C6.74543 15.6408 5.50966 15.3321 4.40307 14.7405ZM4.6246 13.1264L5.12342 13.3938C6.00842 13.8667 6.99678 14.1132 8.00023 14.1111C9.20889 14.1111 10.3904 13.7527 11.3954 13.0812C12.4003 12.4097 13.1836 11.4553 13.6462 10.3386C14.1087 9.22194 14.2297 7.9932 13.9939 6.80776C13.7581 5.62232 13.1761 4.53342 12.3214 3.67877C11.4668 2.82411 10.3779 2.24208 9.19244 2.00629C8.007 1.77049 6.77826 1.89151 5.6616 2.35404C4.54495 2.81658 3.59052 3.59985 2.91902 4.60482C2.24752 5.60979 1.88911 6.79131 1.88911 7.99997C1.88911 9.019 2.13738 9.99984 2.60717 10.8768L2.87377 11.3756L2.37342 13.6268L4.6246 13.1264Z" fill="#1C2436"/>
</svg>
