<svg width="20" height="16" viewBox="0 0 20 16" fill="none" xmlns="http://www.w3.org/2000/svg">
<path d="M10.327 13.7929V14.2929H10.827H14.4648V14.948H5.53421V14.2929H9.17195H9.67195V13.7929V12.0865V11.6456L9.2345 11.5904C7.75542 11.4039 6.39525 10.684 5.40923 9.56587C4.42322 8.44773 3.87915 7.00819 3.87912 5.5174C3.87912 5.5174 3.87912 5.5174 3.87912 5.51739V1.05212H16.1199V5.5174C16.1198 7.00818 15.5758 8.44773 14.5898 9.56587C13.6037 10.684 12.2436 11.4039 10.7645 11.5904L10.827 12.0865H10.327V13.7929ZM5.03421 1.70722H4.53421V2.20722V5.5174C4.53421 6.96688 5.11002 8.357 6.13496 9.38194C7.1599 10.4069 8.55001 10.9827 9.99949 10.9827C11.449 10.9827 12.8391 10.4069 13.864 9.38194C14.889 8.357 15.4648 6.96688 15.4648 5.5174V2.20722V1.70722H14.9648H5.03421ZM1.39648 2.70722H2.05158V5.0174H1.39648V2.70722ZM17.9474 2.70722H18.6025V5.0174H17.9474V2.70722Z" stroke="#FBFFFF"/>
</svg>
