<svg width="15" height="17" viewBox="0 0 15 17" fill="none" xmlns="http://www.w3.org/2000/svg">
<path d="M11.6759 5.96505V6.46505H12.1759H13.7184C13.7903 6.46505 13.8593 6.49362 13.9102 6.54449C13.9611 6.59535 13.9896 6.66434 13.9896 6.73628V15.9911C13.9896 16.063 13.9611 16.132 13.9102 16.1829C13.8593 16.2337 13.7903 16.2623 13.7184 16.2623H1.37866C1.30672 16.2623 1.23773 16.2337 1.18686 16.1829C1.136 16.132 1.10742 16.063 1.10742 15.9911V6.73628C1.10742 6.66434 1.136 6.59536 1.18686 6.54449C1.23773 6.49362 1.30672 6.46505 1.37866 6.46505H2.92112H3.42112V5.96505V5.19381C3.42112 4.09916 3.85597 3.04933 4.63001 2.2753C5.40405 1.50126 6.45387 1.06641 7.54853 1.06641C8.64318 1.06641 9.693 1.50126 10.467 2.2753C11.2411 3.04933 11.6759 4.09916 11.6759 5.19381V5.96505ZM2.14989 7.00751H1.64989V7.50751V15.2199V15.7199H2.14989H12.9472H13.4472V15.2199V7.50751V7.00751H12.9472H2.14989ZM10.6335 6.46505H11.1335V5.96505V5.19381C11.1335 4.24303 10.7558 3.33118 10.0835 2.65888C9.41115 1.98657 8.49931 1.60887 7.54853 1.60887C6.59774 1.60887 5.6859 1.98657 5.0136 2.65888C4.34129 3.33118 3.96359 4.24303 3.96359 5.19381V5.96505V6.46505H4.46359H10.6335ZM7.81976 11.0925V11.6349H7.27729V11.0925H7.81976ZM4.19236 11.0925H4.73483V11.6349H4.19236V11.0925ZM10.3622 11.0925H10.9047V11.6349H10.3622V11.0925Z" fill="#FBFFFF" stroke="#FBFFFF"/>
</svg>
