<svg width="69" height="50" viewBox="0 0 69 50" fill="none" xmlns="http://www.w3.org/2000/svg">
<path d="M40.4316 31.9553C40.4316 23.12 42.8526 15.891 47.6947 10.2685C51.6733 5.5388 57.1774 2.16471 64.207 0.146288C66.6675 -0.560218 69 1.38717 69 3.94716C69 5.87735 67.6371 7.50875 65.8104 8.13233C62.2857 9.33558 59.3945 11.1855 57.1368 13.6822C55.6425 15.2659 54.4898 17.0266 53.6787 18.9645C52.3966 22.0274 55.1223 24.9272 58.4427 24.9272C61.5991 24.9272 64.1579 27.486 64.1579 30.6423V43.0236C64.1579 46.3373 61.4716 49.0236 58.1579 49.0236H46.4316C43.1179 49.0236 40.4316 46.3373 40.4316 43.0236V31.9553ZM0 31.9553C0 23.12 2.42105 15.891 7.26316 10.2685C11.2265 5.55687 16.6497 2.19052 23.5327 0.169486C25.9893 -0.551839 28.3263 1.39319 28.3263 3.9535C28.3263 5.88 26.967 7.50986 25.14 8.12124C21.6138 9.30128 18.7215 11.088 16.4632 13.4814C15.0369 15.0819 13.9159 16.8813 13.1001 18.8797C11.8389 21.9695 14.53 24.9272 17.8673 24.9272C20.9694 24.9272 23.4842 27.442 23.4842 30.5441V43.0236C23.4842 46.3373 20.7979 49.0236 17.4842 49.0236H6C2.6863 49.0236 0 46.3373 0 43.0236V31.9553Z" fill="#EDEFFB"/>
</svg>
