<svg width="20" height="20" viewBox="0 0 20 20" fill="none" xmlns="http://www.w3.org/2000/svg">
<path d="M9.375 4.125C12.2729 4.125 14.625 6.47711 14.625 9.375C14.625 12.2729 12.2729 14.625 9.375 14.625C6.47711 14.625 4.125 12.2729 4.125 9.375C4.125 6.47711 6.47711 4.125 9.375 4.125ZM9.375 14.125C11.999 14.125 14.125 11.999 14.125 9.375C14.125 6.75036 11.9989 4.625 9.375 4.625C6.75039 4.625 4.625 6.75039 4.625 9.375C4.625 11.9989 6.75036 14.125 9.375 14.125ZM14.3247 14.6782L14.6782 14.3247L15.9159 15.5619L15.5619 15.9159L14.3247 14.6782Z" fill="#A0A3BD" stroke="#A0A3BD" stroke-width="0.75"/>
</svg>
