<svg width="14" height="12" viewBox="0 0 14 12" fill="none" xmlns="http://www.w3.org/2000/svg">
<mask id="path-1-inside-1_732_14353" fill="white">
<path d="M9.10059 1.8939C8.61677 1.89382 8.15226 2.08368 7.80701 2.42262C7.46176 2.76156 7.26336 3.22249 7.25452 3.70623L7.2367 4.70883C7.23565 4.76266 7.22324 4.81566 7.20027 4.86436C7.17731 4.91306 7.1443 4.95635 7.10343 4.99139C7.06255 5.02644 7.01473 5.05244 6.9631 5.06771C6.91146 5.08297 6.85719 5.08714 6.80383 5.07995L5.81014 4.945C4.50261 4.76676 3.24983 4.16456 2.04798 3.16323C1.66731 5.27029 2.41083 6.72995 4.20151 7.85605L5.31361 8.55501C5.36645 8.58822 5.41035 8.63387 5.44146 8.68796C5.47258 8.74206 5.48996 8.80296 5.4921 8.86533C5.49424 8.9277 5.48106 8.98964 5.45371 9.04574C5.42637 9.10184 5.3857 9.15039 5.33525 9.18713L4.32183 9.92746C4.92466 9.96502 5.49694 9.93829 5.97183 9.84407C8.97518 9.24442 10.9721 6.98458 10.9721 3.25681C10.9721 2.95252 10.3279 1.8939 9.10059 1.8939ZM5.98137 3.68267C5.99249 3.06905 6.18437 2.47234 6.533 1.96725C6.88164 1.46216 7.37153 1.07114 7.94133 0.843151C8.51114 0.61516 9.13554 0.560329 9.73636 0.685523C10.3372 0.810716 10.8877 1.11037 11.319 1.54697C11.7717 1.54379 12.1568 1.65837 13.0181 1.13638C12.8048 2.18036 12.6998 2.6336 12.2453 3.25681C12.2453 8.1215 9.25527 10.487 6.22136 11.0924C4.14104 11.5074 1.11604 10.8257 0.249023 9.92046C0.690806 9.88609 2.48595 9.6932 3.52356 8.93377C2.64573 8.35513 -0.848431 6.29899 1.44769 0.770984C2.52541 2.02949 3.61841 2.88632 4.72605 3.34083C5.4632 3.64321 5.64399 3.63684 5.98201 3.68331L5.98137 3.68267Z"/>
</mask>
<path d="M9.10059 1.8939C8.61677 1.89382 8.15226 2.08368 7.80701 2.42262C7.46176 2.76156 7.26336 3.22249 7.25452 3.70623L7.2367 4.70883C7.23565 4.76266 7.22324 4.81566 7.20027 4.86436C7.17731 4.91306 7.1443 4.95635 7.10343 4.99139C7.06255 5.02644 7.01473 5.05244 6.9631 5.06771C6.91146 5.08297 6.85719 5.08714 6.80383 5.07995L5.81014 4.945C4.50261 4.76676 3.24983 4.16456 2.04798 3.16323C1.66731 5.27029 2.41083 6.72995 4.20151 7.85605L5.31361 8.55501C5.36645 8.58822 5.41035 8.63387 5.44146 8.68796C5.47258 8.74206 5.48996 8.80296 5.4921 8.86533C5.49424 8.9277 5.48106 8.98964 5.45371 9.04574C5.42637 9.10184 5.3857 9.15039 5.33525 9.18713L4.32183 9.92746C4.92466 9.96502 5.49694 9.93829 5.97183 9.84407C8.97518 9.24442 10.9721 6.98458 10.9721 3.25681C10.9721 2.95252 10.3279 1.8939 9.10059 1.8939ZM5.98137 3.68267C5.99249 3.06905 6.18437 2.47234 6.533 1.96725C6.88164 1.46216 7.37153 1.07114 7.94133 0.843151C8.51114 0.61516 9.13554 0.560329 9.73636 0.685523C10.3372 0.810716 10.8877 1.11037 11.319 1.54697C11.7717 1.54379 12.1568 1.65837 13.0181 1.13638C12.8048 2.18036 12.6998 2.6336 12.2453 3.25681C12.2453 8.1215 9.25527 10.487 6.22136 11.0924C4.14104 11.5074 1.11604 10.8257 0.249023 9.92046C0.690806 9.88609 2.48595 9.6932 3.52356 8.93377C2.64573 8.35513 -0.848431 6.29899 1.44769 0.770984C2.52541 2.02949 3.61841 2.88632 4.72605 3.34083C5.4632 3.64321 5.64399 3.63684 5.98201 3.68331L5.98137 3.68267Z" fill="#262338"/>
<path d="M7.25452 3.70623L6.25469 3.68795L6.25468 3.68845L7.25452 3.70623ZM7.2367 4.70883L8.23651 4.72821L8.23654 4.72661L7.2367 4.70883ZM6.80383 5.07995L6.66925 6.07086L6.67031 6.071L6.80383 5.07995ZM5.81014 4.945L5.67507 5.93584L5.67556 5.9359L5.81014 4.945ZM2.04798 3.16323L2.68809 2.39494L1.36913 1.29604L1.06391 2.98544L2.04798 3.16323ZM4.20151 7.85605L3.66916 8.70258L3.66938 8.70271L4.20151 7.85605ZM5.31361 8.55501L4.78148 9.40167L4.78152 9.4017L5.31361 8.55501ZM5.33525 9.18713L4.7465 8.37882L4.74536 8.37964L5.33525 9.18713ZM4.32183 9.92746L3.73194 9.11998L1.49606 10.7534L4.25964 10.9255L4.32183 9.92746ZM5.97183 9.84407L6.16642 10.825L6.16762 10.8247L5.97183 9.84407ZM5.98137 3.68267L4.98154 3.66457L4.97384 4.08964L5.2746 4.39012L5.98137 3.68267ZM11.319 1.54697L10.6077 2.24977L10.9042 2.54991L11.3261 2.54694L11.319 1.54697ZM13.0181 1.13638L13.9978 1.33651L14.4555 -0.90413L12.4998 0.28118L13.0181 1.13638ZM12.2453 3.25681L11.4373 2.66755L11.2453 2.93088V3.25681H12.2453ZM6.22136 11.0924L6.41702 12.0731L6.41704 12.0731L6.22136 11.0924ZM0.249023 9.92046L0.171448 8.92348L-1.93371 9.08728L-0.473155 10.6122L0.249023 9.92046ZM3.52356 8.93377L4.11417 9.74073L5.2754 8.89083L4.07392 8.09885L3.52356 8.93377ZM1.44769 0.770984L2.20725 0.120541L1.14854 -1.11576L0.524189 0.387396L1.44769 0.770984ZM4.72605 3.34083L4.34642 4.26597L4.34655 4.26602L4.72605 3.34083ZM5.98201 3.68331L5.84582 4.67399L8.79425 5.07933L6.68878 2.97587L5.98201 3.68331ZM9.10076 0.893901C8.35486 0.893776 7.63872 1.18648 7.10645 1.70902L8.50756 3.13622C8.66579 2.98088 8.87868 2.89386 9.10042 2.8939L9.10076 0.893901ZM7.10645 1.70902C6.57418 2.23156 6.26832 2.94218 6.25469 3.68795L8.25436 3.7245C8.25841 3.5028 8.34933 3.29156 8.50756 3.13622L7.10645 1.70902ZM6.25468 3.68845L6.23686 4.69106L8.23654 4.72661L8.25436 3.724L6.25468 3.68845ZM6.23689 4.68945C6.23857 4.60235 6.25866 4.51658 6.29583 4.43778L8.10472 5.29095C8.18783 5.11475 8.23274 4.92298 8.23651 4.72821L6.23689 4.68945ZM6.29583 4.43778C6.33299 4.35898 6.3864 4.28893 6.45254 4.23221L7.75431 5.75057C7.90221 5.62377 8.02162 5.46714 8.10472 5.29095L6.29583 4.43778ZM6.45254 4.23221C6.51869 4.1755 6.59608 4.13342 6.67962 4.10873L7.24657 6.02669C7.43338 5.97147 7.60641 5.87737 7.75431 5.75057L6.45254 4.23221ZM6.67962 4.10873C6.76317 4.08403 6.851 4.07727 6.93735 4.08891L6.67031 6.071C6.86337 6.09701 7.05975 6.08191 7.24657 6.02669L6.67962 4.10873ZM6.9384 4.08905L5.94471 3.9541L5.67556 5.9359L6.66925 6.07086L6.9384 4.08905ZM5.94521 3.95416C4.86103 3.80637 3.77791 3.30293 2.68809 2.39494L1.40788 3.93152C2.72176 5.02619 4.14419 5.72715 5.67507 5.93584L5.94521 3.95416ZM1.06391 2.98544C0.845252 4.19576 0.936384 5.30667 1.40577 6.30351C1.87194 7.29351 2.66386 8.07037 3.66916 8.70258L4.73386 7.00953C3.94849 6.51563 3.47331 5.99961 3.21521 5.45149C2.96033 4.91021 2.87004 4.23776 3.03205 3.34102L1.06391 2.98544ZM3.66938 8.70271L4.78148 9.40167L5.84574 7.70835L4.73364 7.00939L3.66938 8.70271ZM4.78152 9.4017C4.69602 9.34797 4.62498 9.2741 4.57463 9.18656L6.3083 8.18937C6.19571 7.99363 6.03688 7.82847 5.8457 7.70832L4.78152 9.4017ZM4.57463 9.18656C4.52427 9.09902 4.49614 9.00047 4.49269 8.89955L6.49151 8.83111C6.48379 8.60544 6.42088 8.3851 6.3083 8.18937L4.57463 9.18656ZM4.49269 8.89955C4.48923 8.79863 4.51056 8.69839 4.55481 8.6076L6.35262 9.48388C6.45156 9.2809 6.49924 9.05677 6.49151 8.83111L4.49269 8.89955ZM4.55481 8.6076C4.59905 8.51683 4.66487 8.43828 4.7465 8.37882L5.92401 9.99544C6.10653 9.8625 6.25369 9.68685 6.35262 9.48388L4.55481 8.6076ZM4.74536 8.37964L3.73194 9.11998L4.91171 10.7349L5.92514 9.99461L4.74536 8.37964ZM4.25964 10.9255C4.9237 10.9669 5.58575 10.9402 6.16642 10.825L5.77723 8.86319C5.40813 8.93642 4.92562 8.96314 4.38401 8.9294L4.25964 10.9255ZM6.16762 10.8247C7.86946 10.4849 9.34134 9.66032 10.3826 8.34382C11.4222 7.0293 11.9721 5.3013 11.9721 3.25681H9.97212C9.97212 4.94009 9.52354 6.20589 8.81389 7.10315C8.10582 7.99842 7.07755 8.60357 5.77603 8.86343L6.16762 10.8247ZM11.9721 3.25681C11.9721 2.91965 11.8289 2.61264 11.7247 2.42673C11.5975 2.1996 11.4184 1.96056 11.1901 1.74078C10.729 1.29697 10.0232 0.893901 9.10059 0.893901V2.8939C9.40532 2.8939 9.63525 3.02015 9.80311 3.18172C9.88924 3.26462 9.94796 3.3473 9.97986 3.40423C9.99579 3.43267 9.99926 3.4444 9.99661 3.43671C9.99514 3.43245 9.99011 3.4173 9.98497 3.39226C9.98026 3.36928 9.97212 3.32197 9.97212 3.25681H11.9721ZM6.98121 3.70078C6.98876 3.28388 7.11913 2.87847 7.35599 2.53531L5.71002 1.39919C5.24961 2.0662 4.99621 2.85422 4.98154 3.66457L6.98121 3.70078ZM7.35599 2.53531C7.59285 2.19215 7.92569 1.92649 8.31282 1.77159L7.56985 -0.0852877C6.81736 0.215795 6.17042 0.732171 5.71002 1.39919L7.35599 2.53531ZM8.31282 1.77159C8.69995 1.61669 9.12417 1.57944 9.53237 1.6645L9.94035 -0.293451C9.14691 -0.45878 8.32233 -0.386371 7.56985 -0.0852877L8.31282 1.77159ZM9.53237 1.6645C9.94057 1.74955 10.3146 1.95314 10.6077 2.24977L12.0304 0.844169C11.4608 0.267601 10.7338 -0.128121 9.94035 -0.293451L9.53237 1.6645ZM11.3261 2.54694C11.3871 2.54651 11.8134 2.57493 12.1559 2.52629C12.5778 2.46637 13.0168 2.30648 13.5364 1.99158L12.4998 0.28118C12.1581 0.488265 11.9739 0.532077 11.8747 0.546162C11.8178 0.554248 11.7588 0.556671 11.6732 0.555054C11.6234 0.554112 11.4328 0.546143 11.312 0.546993L11.3261 2.54694ZM12.0383 0.936242C11.8252 1.97929 11.7514 2.23694 11.4373 2.66755L13.0532 3.84606C13.6482 3.03026 13.7844 2.38143 13.9978 1.33651L12.0383 0.936242ZM11.2453 3.25681C11.2453 5.47158 10.5703 7.03612 9.62166 8.10969C8.66268 9.19498 7.36493 9.8445 6.02568 10.1117L6.41704 12.0731C8.11171 11.7349 9.82591 10.899 11.1204 9.434C12.4252 7.95729 13.2453 5.90673 13.2453 3.25681H11.2453ZM6.02571 10.1117C5.15412 10.2856 4.01891 10.2357 2.98199 10.0221C2.47037 9.91669 2.01048 9.77696 1.64401 9.62241C1.25927 9.46016 1.05124 9.31232 0.971202 9.22875L-0.473155 10.6122C-0.119685 10.9812 0.375539 11.258 0.866843 11.4652C1.37642 11.6801 1.96536 11.8546 2.57841 11.981C3.79083 12.2307 5.20828 12.3142 6.41702 12.0731L6.02571 10.1117ZM0.326599 10.9174C0.578825 10.8978 1.19123 10.8355 1.88947 10.673C2.56703 10.5153 3.43202 10.24 4.11417 9.74073L2.93295 8.12682C2.57749 8.38698 2.0261 8.58778 1.43624 8.72503C0.867056 8.85746 0.361004 8.90873 0.171448 8.92348L0.326599 10.9174ZM4.07392 8.09885C3.61439 7.79593 2.73423 7.25866 2.17343 6.2298C1.64513 5.26057 1.31932 3.68701 2.3712 1.15457L0.524189 0.387396C-0.720058 3.38297 -0.446854 5.60148 0.417355 7.18698C1.24906 8.71285 2.5549 9.49296 2.9732 9.7687L4.07392 8.09885ZM0.688138 1.42143C1.83152 2.75661 3.04687 3.73271 4.34642 4.26597L5.10568 2.41569C4.18995 2.03993 3.21931 1.30237 2.20725 0.120541L0.688138 1.42143ZM4.34655 4.26602C4.74088 4.42777 5.02464 4.52296 5.27592 4.58175C5.51594 4.6379 5.7312 4.65823 5.84582 4.67399L6.11821 2.69263C5.89481 2.66192 5.85066 2.6622 5.73149 2.63432C5.62358 2.60908 5.44838 2.55627 5.10555 2.41564L4.34655 4.26602ZM6.68878 2.97587L6.68814 2.97523L5.2746 4.39012L5.27524 4.39075L6.68878 2.97587Z" fill="#149BFC" mask="url(#path-1-inside-1_732_14353)"/>
</svg>
